<svg version="1.1" id="Layer_1" xmlns="http://www.w3.org/2000/svg" x="0" y="0" width="17" height="17" viewBox="0 0 17 17" xml:space="preserve"><path fill="#858E9D" d="M3.657 13.482c.295-.043.648-.104.93-.162.028-.574.028-1.592.028-2.227V3.68l-.988-.162c-.03 0 0-.545.03-.545h4.672c3.403 0 4.496.825 4.496 2.64 0 1.354-1.048 2.182-2.74 2.563v.074c1.692.176 3.3.825 3.3 2.667 0 1.46-.677 2.15-2.12 2.728-.575.223-1.743.383-2.715.383H3.628c-.03 0 0-.546.03-.546zM7.96 7.866c.444 0 .872-.088 1.195-.294.443-.28.796-.635.796-1.725 0-1.607-.514-2.183-1.855-2.183H7.71v4.202h.25zm.386 5.47c1.297 0 1.96-.707 1.96-2.36 0-1.663-.766-2.252-2.595-2.312v4.675l.636-.003z"/><circle fill="none" stroke="#858E9D" stroke-miterlimit="10" cx="8.5" cy="8.5" r="8"/></svg>