<svg version="1.1" id="Layer_1" xmlns="http://www.w3.org/2000/svg" x="0" y="0" width="17" height="17" viewBox="0 0 17 17" xml:space="preserve"><path fill="#858E9D" d="M3.657 13.482c.295-.043.648-.104.929-.162.029-.574.029-1.592.029-2.227V3.68l-.988-.162c-.03 0 0-.545.029-.545h4.673c3.404 0 4.497.825 4.497 2.639 0 1.355-1.048 2.183-2.741 2.564v.074c1.693.176 3.301.825 3.301 2.667 0 1.46-.677 2.151-2.121 2.728-.574.223-1.742.383-2.714.383H3.627c-.029-.001 0-.546.03-.546zm4.304-5.616c.443 0 .871-.088 1.194-.294.443-.281.796-.635.796-1.725 0-1.607-.515-2.183-1.856-2.183h-.384v4.202h.25zm.385 5.471c1.297 0 1.961-.708 1.961-2.36 0-1.664-.767-2.253-2.596-2.313v4.675l.635-.002z"/><circle fill="none" stroke="#858E9D" stroke-miterlimit="10" cx="8.5" cy="8.5" r="8"/></svg>