<svg version="1.1" id="Layer_1" xmlns="http://www.w3.org/2000/svg" x="0" y="0" width="17" height="17" viewBox="0 0 17 17" xml:space="preserve"><path fill="#858E9D" d="M3.968 13.163c.276-.04.606-.098.87-.152.026-.536.026-1.488.026-2.082v-6.94l-.925-.15c-.03 0 0-.51.026-.51H8.34c3.187 0 4.21.77 4.21 2.47 0 1.267-.98 2.04-2.566 2.4v.068c1.585.165 3.09.772 3.09 2.496 0 1.366-.635 2.014-1.986 2.553-.537.208-1.63.358-2.54.358h-4.61c-.025 0 0-.51.03-.51zm4.028-5.256c.415 0 .815-.082 1.118-.275.415-.263.745-.594.745-1.614 0-1.504-.483-2.043-1.74-2.043h-.358v3.933h.234zm.36 5.12c1.214 0 1.835-.663 1.835-2.21 0-1.557-.716-2.108-2.428-2.165v4.375h.594z"/><circle fill="none" stroke="#858E9D" stroke-miterlimit="10" cx="8.5" cy="8.5" r="8"/></svg>