<svg version="1.1" id="Layer_1" xmlns="http://www.w3.org/2000/svg" x="0" y="0" width="17" height="17" viewBox="0 0 17 17" xml:space="preserve"><path fill="#858E9D" d="M3.968 13.163c.276-.041.606-.098.869-.152.027-.537.027-1.489.027-2.083V3.989l-.925-.152c-.028 0 0-.51.027-.51H8.34c3.187 0 4.209.772 4.209 2.47 0 1.268-.98 2.042-2.565 2.4v.069c1.585.165 3.089.772 3.089 2.496 0 1.366-.634 2.014-1.985 2.553-.537.208-1.63.358-2.54.358H3.939c-.026 0 0-.51.029-.51zm4.028-5.256c.415 0 .815-.082 1.118-.275.415-.263.745-.594.745-1.614 0-1.504-.482-2.043-1.738-2.043h-.359v3.933l.234-.001zm.36 5.119c1.214 0 1.835-.662 1.835-2.209 0-1.557-.717-2.108-2.429-2.165v4.375l.594-.001z"/><circle fill="none" stroke="#858E9D" stroke-miterlimit="10" cx="8.5" cy="8.5" r="8"/></svg>