<svg version="1.1" id="Layer_1" xmlns="http://www.w3.org/2000/svg" x="0" y="0" width="17" height="17" viewBox="0 0 17 17" xml:space="preserve"><path fill="#858E9D" d="M4.46 12.657c.246-.037.54-.087.774-.136.024-.478.024-1.327.024-1.856V4.478l-.824-.135c-.024 0 0-.455.024-.455h3.9c2.84 0 3.75.69 3.75 2.202 0 1.13-.873 1.82-2.286 2.14v.06c1.413.147 2.754.69 2.754 2.226 0 1.218-.565 1.795-1.77 2.275-.48.187-1.453.32-2.265.32H4.435c-.024 0 0-.453.025-.453zM8.05 7.97c.37 0 .727-.072.997-.244.37-.235.664-.53.664-1.438 0-1.34-.43-1.822-1.548-1.822h-.32v3.506h.208zm.322 4.565c1.083 0 1.636-.59 1.636-1.97 0-1.388-.64-1.88-2.165-1.93v3.9h.53z"/><circle fill="none" stroke="#858E9D" stroke-miterlimit="10" cx="8.5" cy="8.5" r="8"/></svg>