<svg version="1.1" id="Layer_1" xmlns="http://www.w3.org/2000/svg" x="0" y="0" width="17" height="17" viewBox="0 0 17 17" xml:space="preserve"><path fill="#858E9D" d="M4.459 12.657c.247-.037.541-.087.775-.136.024-.479.024-1.328.024-1.857V4.478l-.824-.135c-.024 0 0-.455.024-.455h3.899c2.841 0 3.752.689 3.752 2.202 0 1.13-.874 1.821-2.287 2.139v.062c1.413.146 2.754.688 2.754 2.225 0 1.218-.565 1.795-1.77 2.275-.479.186-1.453.319-2.265.319H4.434c-.024.001 0-.453.025-.453zM8.05 7.971c.37 0 .727-.073.997-.245.37-.235.664-.53.664-1.438 0-1.341-.43-1.822-1.549-1.822h-.32v3.506l.208-.001zm.322 4.564c1.083 0 1.636-.59 1.636-1.969 0-1.389-.639-1.88-2.165-1.93v3.9l.529-.001z"/><circle fill="none" stroke="#858E9D" stroke-miterlimit="10" cx="8.5" cy="8.5" r="8"/></svg>