<svg version="1.1" id="Layer_1" xmlns="http://www.w3.org/2000/svg" x="0" y="0" width="17" height="17" viewBox="0 0 17 17" xml:space="preserve"><path fill="#858E9D" d="M1.523 15.68c.426-.064.933-.15 1.338-.234.043-.827.043-2.294.043-3.208V1.555L1.48 1.322c-.043 0 0-.786.04-.786h6.734c4.906 0 6.48 1.19 6.48 3.803 0 1.95-1.51 3.143-3.95 3.693v.107c2.44.253 4.756 1.188 4.756 3.842 0 2.104-.977 3.1-3.057 3.93-.827.32-2.51.55-3.91.55H1.48c-.042 0 0-.783.043-.783zm6.2-8.093c.638 0 1.255-.126 1.72-.423.64-.406 1.147-.915 1.147-2.484 0-2.316-.74-3.146-2.675-3.146h-.552V7.59h.36v-.003zm.555 7.88c1.87 0 2.826-1.017 2.826-3.397 0-2.398-1.104-3.247-3.74-3.334v6.734h.914v-.002z"/><circle fill="none" stroke="#858E9D" stroke-miterlimit="10" cx="8.5" cy="8.5" r="8"/></svg>