<svg version="1.1" id="Layer_1" xmlns="http://www.w3.org/2000/svg" x="0" y="0" width="17" height="17" viewBox="0 0 17 17" xml:space="preserve"><path fill="#858E9D" d="M1.523 15.679c.426-.063.933-.149 1.338-.233.042-.827.042-2.294.042-3.208V1.555l-1.424-.233c-.042 0 0-.786.042-.786h6.733c4.906 0 6.479 1.189 6.479 3.803 0 1.952-1.509 3.144-3.949 3.694v.107c2.44.253 4.756 1.188 4.756 3.842 0 2.104-.977 3.1-3.057 3.929-.827.32-2.509.552-3.91.552H1.479c-.041 0 0-.784.044-.784zm6.2-8.092c.638 0 1.255-.126 1.721-.423.639-.406 1.146-.915 1.146-2.484 0-2.316-.741-3.146-2.675-3.146h-.552v6.055h.36v-.002zm.555 7.881c1.87 0 2.826-1.018 2.826-3.398 0-2.398-1.104-3.247-3.739-3.334v6.734h.913v-.002z"/><circle fill="none" stroke="#858E9D" stroke-miterlimit="10" cx="8.5" cy="8.5" r="8"/></svg>