<svg version="1.1" id="Layer_1" xmlns="http://www.w3.org/2000/svg" x="0" y="0" width="16" height="16" viewBox="0 0 16 16" xml:space="preserve"><path fill="#858E9D" d="M8 16c-4.41 0-8-3.588-8-8 0-4.41 3.59-8 8-8s8 3.59 8 8c0 4.412-3.59 8-8 8zM8 .94A7.067 7.067 0 0 0 .94 8c0 3.893 3.167 7.058 7.06 7.058S15.06 11.894 15.06 8A7.067 7.067 0 0 0 8 .94z"/><path fill="#858E9D" d="M3.96 12.157c.246-.037.54-.087.774-.136.024-.478.024-1.327.024-1.856V3.98l-.824-.136c-.024 0 0-.455.024-.455h3.9c2.84 0 3.75.687 3.75 2.2 0 1.13-.873 1.82-2.286 2.14v.062c1.413.146 2.754.688 2.754 2.225 0 1.218-.565 1.795-1.77 2.275-.48.186-1.453.32-2.265.32H3.935c-.024 0 0-.455.025-.455zm3.59-4.685c.37 0 .727-.073.997-.245.37-.235.664-.53.664-1.438 0-1.343-.43-1.823-1.548-1.823h-.32v3.507l.208-.002zm.322 4.563c1.083 0 1.636-.59 1.636-1.97 0-1.388-.64-1.88-2.165-1.93v3.9h.53z"/></svg>