<svg xmlns="http://www.w3.org/2000/svg" width="18" height="18" viewBox="0 0 18 18"><path fill="#858E9D" d="M9 18c-4.963 0-9-4.037-9-9s4.037-9 9-9c4.962 0 9 4.037 9 9s-4.038 9-9 9zM9 .936C4.553.936.935 4.554.935 9c0 4.447 3.618 8.065 8.065 8.065 4.446 0 8.064-3.618 8.064-8.065C17.064 4.554 13.446.936 9 .936z"/><path fill="#858E9D" d="M4.156 13.983c.295-.043.648-.104.93-.162.028-.574.028-1.592.028-2.226V4.18l-.988-.163c-.03 0 0-.545.03-.545h4.672c3.405 0 4.497.826 4.497 2.64 0 1.355-1.047 2.182-2.74 2.564v.074c1.693.176 3.3.825 3.3 2.667 0 1.46-.677 2.152-2.122 2.728-.574.222-1.74.383-2.713.383H4.126c-.03 0 0-.545.03-.545zM8.46 8.366c.443 0 .87-.088 1.195-.294.442-.28.795-.635.795-1.725 0-1.607-.514-2.182-1.856-2.182H8.21v4.202h.25zm.385 5.47c1.298 0 1.96-.707 1.96-2.36 0-1.664-.765-2.253-2.594-2.313v4.675h.635z"/></svg>