<svg xmlns="http://www.w3.org/2000/svg" width="18" height="18" viewBox="0 0 18 18"><path fill="#858E9D" d="M9 18c-4.963 0-9-4.037-9-9s4.037-9 9-9c4.962 0 9 4.037 9 9s-4.038 9-9 9zM9 .936C4.553.936.935 4.554.935 9c0 4.447 3.618 8.065 8.065 8.065 4.446 0 8.064-3.618 8.064-8.065C17.064 4.554 13.446.936 9 .936z"/><path fill="#858E9D" d="M4.156 13.983c.295-.043.648-.104.929-.162.029-.575.029-1.593.029-2.227V4.179l-.988-.162c-.03 0 0-.545.029-.545h4.673c3.405 0 4.497.826 4.497 2.639 0 1.356-1.047 2.183-2.741 2.565v.074c1.694.176 3.301.825 3.301 2.667 0 1.46-.677 2.152-2.122 2.728-.574.222-1.741.383-2.713.383H4.126c-.029 0 0-.545.03-.545zM8.46 8.366c.443 0 .871-.088 1.195-.294.442-.281.795-.635.795-1.725 0-1.607-.514-2.182-1.856-2.182H8.21v4.202h.25zm.385 5.471c1.298 0 1.961-.708 1.961-2.36 0-1.665-.766-2.254-2.595-2.314v4.675h.634z"/></svg>