<svg xmlns="http://www.w3.org/2000/svg" width="18" height="18" viewBox="0 0 18 18"><path fill="#858E9D" d="M9 18c-4.963 0-9-4.037-9-9s4.037-9 9-9c4.962 0 9 4.037 9 9s-4.038 9-9 9zM9 .936C4.553.936.935 4.554.935 9c0 4.447 3.618 8.065 8.065 8.065 4.446 0 8.064-3.618 8.064-8.065C17.064 4.554 13.446.936 9 .936z"/><path fill="#858E9D" d="M3.769 14.382c.319-.047.701-.112 1.003-.176.032-.621.032-1.72.032-2.404V3.793l-1.067-.174c-.032 0 0-.588.031-.588h5.047c3.678 0 4.856.892 4.856 2.849 0 1.465-1.131 2.357-2.96 2.771v.079c1.829.19 3.564.891 3.564 2.881 0 1.576-.731 2.324-2.292 2.945-.62.239-1.88.413-2.93.413H3.737c-.032.001 0-.587.032-.587zm4.648-6.067c.479 0 .94-.095 1.291-.318.478-.303.858-.686.858-1.863 0-1.736-.555-2.356-2.005-2.356h-.414v4.537h.27zm.416 5.909c1.401 0 2.118-.765 2.118-2.549 0-1.798-.827-2.435-2.803-2.5v5.048h.685z"/></svg>