<svg xmlns="http://www.w3.org/2000/svg" width="18" height="18" viewBox="0 0 18 18"><path fill="#858E9D" d="M9 18c-4.963 0-9-4.037-9-9s4.037-9 9-9c4.962 0 9 4.037 9 9s-4.038 9-9 9zM9 .936C4.553.936.935 4.554.935 9c0 4.447 3.618 8.065 8.065 8.065 4.446 0 8.064-3.618 8.064-8.065C17.064 4.554 13.446.936 9 .936z"/><path fill="#858E9D" d="M3.77 14.382c.318-.047.7-.112 1.002-.176.032-.62.032-1.72.032-2.404v-8.01L3.737 3.62c-.032 0 0-.59.03-.59h5.048c3.678 0 4.856.893 4.856 2.85 0 1.465-1.13 2.357-2.96 2.77v.08c1.83.19 3.565.89 3.565 2.88 0 1.577-.73 2.325-2.292 2.946-.62.24-1.88.413-2.93.413H3.737c-.032 0 0-.588.032-.588zm4.647-6.067c.48 0 .94-.095 1.29-.318.48-.303.86-.686.86-1.863 0-1.736-.556-2.356-2.006-2.356h-.413v4.537h.27zm.416 5.91c1.4 0 2.118-.766 2.118-2.55 0-1.798-.826-2.435-2.802-2.5v5.048h.685z"/></svg>