<?xml version="1.0" encoding="utf-8"?>
<!-- Generator: Adobe Illustrator 16.0.0, SVG Export Plug-In . SVG Version: 6.00 Build 0)  -->
<!DOCTYPE svg PUBLIC "-//W3C//DTD SVG 1.1//EN" "http://www.w3.org/Graphics/SVG/1.1/DTD/svg11.dtd">
<svg version="1.1" id="Layer_1" xmlns="http://www.w3.org/2000/svg" xmlns:xlink="http://www.w3.org/1999/xlink" x="0px" y="0px"
	 width="17px" height="17px" viewBox="0 0 17 17" enable-background="new 0 0 17 17" xml:space="preserve">
<path fill="#858E9D" d="M3.657,13.482c0.295-0.043,0.648-0.104,0.929-0.162c0.029-0.574,0.029-1.592,0.029-2.227V3.68L3.627,3.518
	c-0.03,0,0-0.545,0.029-0.545h4.673c3.404,0,4.497,0.825,4.497,2.639c0,1.355-1.048,2.183-2.741,2.564V8.25
	c1.693,0.176,3.301,0.825,3.301,2.667c0,1.46-0.677,2.151-2.121,2.728c-0.574,0.223-1.742,0.383-2.714,0.383H3.627
	C3.598,14.027,3.627,13.482,3.657,13.482z M7.961,7.866c0.443,0,0.871-0.088,1.194-0.294c0.443-0.281,0.796-0.635,0.796-1.725
	c0-1.607-0.515-2.183-1.856-2.183H7.711v4.202L7.961,7.866L7.961,7.866z M8.346,13.337c1.297,0,1.961-0.708,1.961-2.36
	c0-1.664-0.767-2.253-2.596-2.313v4.675L8.346,13.337L8.346,13.337z"/>
<circle fill="none" stroke="#858E9D" stroke-miterlimit="10" cx="8.5" cy="8.5" r="8"/>
</svg>
