<?xml version="1.0" encoding="utf-8"?>
<!-- Generator: Adobe Illustrator 16.0.0, SVG Export Plug-In . SVG Version: 6.00 Build 0)  -->
<!DOCTYPE svg PUBLIC "-//W3C//DTD SVG 1.1//EN" "http://www.w3.org/Graphics/SVG/1.1/DTD/svg11.dtd">
<svg version="1.1" id="Layer_1" xmlns="http://www.w3.org/2000/svg" xmlns:xlink="http://www.w3.org/1999/xlink" x="0px" y="0px"
	 width="17px" height="17px" viewBox="0 0 17 17" enable-background="new 0 0 17 17" xml:space="preserve">
<path fill="#858E9D" d="M3.968,13.163c0.276-0.041,0.606-0.098,0.869-0.152c0.027-0.537,0.027-1.489,0.027-2.083V3.989L3.939,3.837
	c-0.028,0,0-0.51,0.027-0.51H8.34c3.187,0,4.209,0.772,4.209,2.47c0,1.268-0.98,2.042-2.565,2.4v0.069
	c1.585,0.165,3.089,0.772,3.089,2.496c0,1.366-0.634,2.014-1.985,2.553c-0.537,0.208-1.63,0.358-2.54,0.358H3.939
	C3.913,13.673,3.939,13.163,3.968,13.163z M7.996,7.907c0.415,0,0.815-0.082,1.118-0.275c0.415-0.263,0.745-0.594,0.745-1.614
	c0-1.504-0.482-2.043-1.738-2.043H7.762v3.933L7.996,7.907L7.996,7.907z M8.356,13.026c1.214,0,1.835-0.662,1.835-2.209
	c0-1.557-0.717-2.108-2.429-2.165v4.375L8.356,13.026L8.356,13.026z"/>
<circle fill="none" stroke="#858E9D" stroke-miterlimit="10" cx="8.5" cy="8.5" r="8"/>
</svg>
