<?xml version="1.0" encoding="utf-8"?>
<!-- Generator: Adobe Illustrator 16.0.0, SVG Export Plug-In . SVG Version: 6.00 Build 0)  -->
<!DOCTYPE svg PUBLIC "-//W3C//DTD SVG 1.1//EN" "http://www.w3.org/Graphics/SVG/1.1/DTD/svg11.dtd">
<svg version="1.1" id="Layer_1" xmlns="http://www.w3.org/2000/svg" xmlns:xlink="http://www.w3.org/1999/xlink" x="0px" y="0px"
	 width="17px" height="17px" viewBox="0 0 17 17" enable-background="new 0 0 17 17" xml:space="preserve">
<path fill="#858E9D" d="M4.459,12.657C4.706,12.62,5,12.57,5.234,12.521c0.024-0.479,0.024-1.328,0.024-1.857V4.478L4.434,4.343
	c-0.024,0,0-0.455,0.024-0.455h3.899c2.841,0,3.752,0.689,3.752,2.202c0,1.13-0.874,1.821-2.287,2.139v0.062
	c1.413,0.146,2.754,0.688,2.754,2.225c0,1.218-0.565,1.795-1.77,2.275c-0.479,0.186-1.453,0.319-2.265,0.319H4.434
	C4.41,13.111,4.434,12.657,4.459,12.657z M8.05,7.971c0.37,0,0.727-0.073,0.997-0.245c0.37-0.235,0.664-0.53,0.664-1.438
	c0-1.341-0.43-1.822-1.549-1.822h-0.32v3.506L8.05,7.971L8.05,7.971z M8.372,12.535c1.083,0,1.636-0.59,1.636-1.969
	c0-1.389-0.639-1.88-2.165-1.93v3.9L8.372,12.535L8.372,12.535z"/>
<circle fill="none" stroke="#858E9D" stroke-miterlimit="10" cx="8.5" cy="8.5" r="8"/>
</svg>
