<?xml version="1.0" encoding="utf-8"?>
<!-- Generator: Adobe Illustrator 16.0.0, SVG Export Plug-In . SVG Version: 6.00 Build 0)  -->
<!DOCTYPE svg PUBLIC "-//W3C//DTD SVG 1.1//EN" "http://www.w3.org/Graphics/SVG/1.1/DTD/svg11.dtd">
<svg version="1.1" id="Layer_1" xmlns="http://www.w3.org/2000/svg" xmlns:xlink="http://www.w3.org/1999/xlink" x="0px" y="0px"
	 width="17px" height="17px" viewBox="0 0 17 17" enable-background="new 0 0 17 17" xml:space="preserve">
<path fill="#858E9D" d="M1.523,15.679c0.426-0.063,0.933-0.149,1.338-0.233c0.042-0.827,0.042-2.294,0.042-3.208V1.555L1.479,1.322
	c-0.042,0,0-0.786,0.042-0.786h6.733c4.906,0,6.479,1.189,6.479,3.803c0,1.952-1.509,3.144-3.949,3.694V8.14
	c2.44,0.253,4.756,1.188,4.756,3.842c0,2.104-0.977,3.1-3.057,3.929c-0.827,0.32-2.509,0.552-3.91,0.552H1.479
	C1.438,16.463,1.479,15.679,1.523,15.679z M7.723,7.587c0.638,0,1.255-0.126,1.721-0.423c0.639-0.406,1.146-0.915,1.146-2.484
	c0-2.316-0.741-3.146-2.675-3.146H7.363v6.055h0.36V7.587z M8.278,15.468c1.87,0,2.826-1.018,2.826-3.398
	c0-2.398-1.104-3.247-3.739-3.334v6.734h0.913V15.468z"/>
<circle fill="none" stroke="#858E9D" stroke-miterlimit="10" cx="8.5" cy="8.5" r="8"/>
</svg>
