<?xml version="1.0" encoding="utf-8"?>
<!-- Generator: Adobe Illustrator 16.0.0, SVG Export Plug-In . SVG Version: 6.00 Build 0)  -->
<!DOCTYPE svg PUBLIC "-//W3C//DTD SVG 1.1//EN" "http://www.w3.org/Graphics/SVG/1.1/DTD/svg11.dtd">
<svg version="1.1" id="Layer_1" xmlns="http://www.w3.org/2000/svg" xmlns:xlink="http://www.w3.org/1999/xlink" x="0px" y="0px"
	 width="16px" height="16px" viewBox="0 0 16 16" enable-background="new 0 0 16 16" xml:space="preserve">
<g>
	<path fill="#858E9D" d="M8,16c-4.411,0-8-3.588-8-8c0-4.411,3.589-8,8-8c4.411,0,8,3.589,8,8C16,12.412,12.411,16,8,16z M8,0.941
		C4.107,0.941,0.941,4.108,0.941,8c0,3.893,3.166,7.058,7.059,7.058S15.059,11.894,15.059,8C15.059,4.108,11.893,0.941,8,0.941z"/>
</g>
<path fill="#858E9D" d="M3.959,12.157C4.206,12.12,4.5,12.07,4.734,12.021c0.024-0.479,0.024-1.328,0.024-1.857V3.979L3.934,3.844
	c-0.024,0,0-0.455,0.024-0.455h3.899c2.841,0,3.752,0.688,3.752,2.202c0,1.13-0.874,1.82-2.287,2.139v0.062
	c1.413,0.146,2.754,0.688,2.754,2.225c0,1.218-0.565,1.795-1.77,2.275c-0.479,0.186-1.453,0.319-2.265,0.319H3.934
	C3.91,12.611,3.934,12.157,3.959,12.157z M7.55,7.472c0.37,0,0.727-0.073,0.997-0.245c0.37-0.235,0.664-0.53,0.664-1.438
	c0-1.342-0.43-1.822-1.549-1.822h-0.32v3.507L7.55,7.472L7.55,7.472z M7.872,12.035c1.083,0,1.636-0.59,1.636-1.969
	c0-1.389-0.639-1.88-2.165-1.93v3.899L7.872,12.035L7.872,12.035z"/>
</svg>
