<svg  xmlns="http://www.w3.org/2000/svg" width="18px" height="18px" viewBox="0 0 18 18" >
<circle fill="none" stroke="#858E9D" stroke-miterlimit="10" cx="9" cy="9" r="8.5"/>
<path fill="#858E9D" d="M4.157,13.982c0.295-0.043,0.648-0.104,0.929-0.162c0.029-0.574,0.029-1.592,0.029-2.227V4.18L4.127,4.018
	c-0.03,0,0-0.545,0.029-0.545h4.673c3.404,0,4.497,0.825,4.497,2.639c0,1.355-1.048,2.183-2.741,2.564V8.75
	c1.693,0.176,3.301,0.825,3.301,2.667c0,1.46-0.677,2.151-2.121,2.728c-0.574,0.223-1.742,0.383-2.714,0.383H4.127
	C4.098,14.527,4.127,13.982,4.157,13.982z M8.461,8.366c0.443,0,0.871-0.088,1.194-0.294c0.443-0.281,0.796-0.635,0.796-1.725
	c0-1.607-0.515-2.183-1.856-2.183H8.211v4.202L8.461,8.366L8.461,8.366z M8.846,13.837c1.297,0,1.961-0.708,1.961-2.36
	c0-1.664-0.767-2.253-2.596-2.313v4.675L8.846,13.837L8.846,13.837z"/>
</svg>
