


<svg  xmlns="http://www.w3.org/2000/svg" width="18px" height="18px" viewBox="0 0 18 18" >

	<path fill="#858E9D" d="M9,18c-4.963,0-9-4.037-9-9s4.037-9,9-9c4.962,0,9,4.037,9,9S13.962,18,9,18z M9,0.936
		C4.553,0.936,0.935,4.554,0.935,9c0,4.447,3.618,8.065,8.065,8.065c4.446,0,8.064-3.618,8.064-8.065
		C17.064,4.554,13.446,0.936,9,0.936z"/>

	<path fill="#858E9D" d="M4.156,13.983c0.295-0.043,0.648-0.104,0.929-0.162c0.029-0.575,0.029-1.593,0.029-2.227V4.179L4.126,4.017
		c-0.03,0,0-0.545,0.029-0.545h4.673c3.405,0,4.497,0.826,4.497,2.639c0,1.356-1.047,2.183-2.741,2.565V8.75
		c1.694,0.176,3.301,0.825,3.301,2.667c0,1.46-0.677,2.152-2.122,2.728c-0.574,0.222-1.741,0.383-2.713,0.383H4.126
		C4.097,14.528,4.126,13.983,4.156,13.983z M8.46,8.366c0.443,0,0.871-0.088,1.195-0.294c0.442-0.281,0.795-0.635,0.795-1.725
		c0-1.607-0.514-2.182-1.856-2.182H8.21v4.202H8.46z M8.845,13.837c1.298,0,1.961-0.708,1.961-2.36c0-1.665-0.766-2.254-2.595-2.314
		v4.675H8.845z"/>

</svg>
