<svg xmlns="http://www.w3.org/2000/svg"  width="18px" height="18px" viewBox="0 0 18 18" >
	<path fill="#858E9D" d="M9,18c-4.963,0-9-4.037-9-9s4.037-9,9-9c4.962,0,9,4.037,9,9S13.962,18,9,18z M9,0.936
		C4.553,0.936,0.935,4.554,0.935,9c0,4.447,3.618,8.065,8.065,8.065c4.446,0,8.064-3.618,8.064-8.065
		C17.064,4.554,13.446,0.936,9,0.936z"/>
	<path fill="#858E9D" d="M3.769,14.382c0.319-0.047,0.701-0.112,1.003-0.176c0.032-0.621,0.032-1.72,0.032-2.404V3.793L3.737,3.619
		c-0.032,0,0-0.588,0.031-0.588h5.047c3.678,0,4.856,0.892,4.856,2.849c0,1.465-1.131,2.357-2.96,2.771V8.73
		c1.829,0.19,3.564,0.891,3.564,2.881c0,1.576-0.731,2.324-2.292,2.945c-0.62,0.239-1.88,0.413-2.93,0.413H3.737
		C3.705,14.97,3.737,14.382,3.769,14.382z M8.417,8.315c0.479,0,0.94-0.095,1.291-0.318c0.478-0.303,0.858-0.686,0.858-1.863
		c0-1.736-0.555-2.356-2.005-2.356H8.147v4.537H8.417z M8.833,14.224c1.401,0,2.118-0.765,2.118-2.549
		c0-1.798-0.827-2.435-2.803-2.5v5.048H8.833z"/>
</svg>
