<svg version="1.1" id="Layer_1" xmlns="http://www.w3.org/2000/svg" x="0" y="0" width="17" height="17" viewBox="0 0 17 17" xml:space="preserve"><path d="M1.396 15.811c.433-.066.952-.154 1.363-.24.042-.844.042-2.335.042-3.265V1.429l-1.447-.237c-.044 0 0-.801.042-.801h6.855c4.993 0 6.595 1.213 6.595 3.872 0 1.989-1.535 3.199-4.023 3.761v.109c2.488.258 4.843 1.211 4.843 3.912 0 2.14-.991 3.158-3.111 3.999-.844.326-2.551.564-3.979.564H1.354c-.044 0 0-.797.042-.797zM7.71 7.57c.648 0 1.276-.129 1.752-.432.647-.411 1.166-.931 1.166-2.529 0-2.359-.756-3.201-2.723-3.201h-.563V7.57h.368zm.561 8.023c1.904 0 2.877-1.038 2.877-3.459 0-2.444-1.124-3.309-3.806-3.396v6.855h.929z"/></svg>