<svg version="1.1" id="Layer_1" xmlns="http://www.w3.org/2000/svg" x="0" y="0" width="17" height="17" viewBox="0 0 17 17" xml:space="preserve"><path d="M1.396 15.81c.433-.065.952-.153 1.363-.24.04-.843.04-2.334.04-3.264V1.43L1.355 1.19c-.044 0 0-.8.042-.8H8.25c4.994 0 6.596 1.212 6.596 3.87 0 1.99-1.535 3.2-4.023 3.762v.11c2.488.257 4.843 1.21 4.843 3.91 0 2.14-.99 3.16-3.11 4-.845.326-2.552.564-3.98.564H1.354c-.044 0 0-.797.042-.797zM7.71 7.57c.648 0 1.276-.13 1.752-.432.647-.41 1.166-.93 1.166-2.53 0-2.358-.756-3.2-2.723-3.2h-.563V7.57h.368zm.56 8.023c1.905 0 2.878-1.038 2.878-3.46 0-2.443-1.124-3.308-3.806-3.395v6.855h.93z"/></svg>