<svg xmlns="http://www.w3.org/2000/svg" viewBox="0 0 284.5 50.25"><path fill="none" stroke="#201748" stroke-width=".5" d="M232.76 4.69v35.426"/><path fill="#201748" d="M19.958 22.148v-.224c5.703-1.23 9-3.557 9-7.904 0-5.118-3.244-7.603-13.775-7.603H.72c-.09 0-.18 1.946-.09 1.946 1.027.173 1.89.303 3.002.476v21.417c0 1.9-.003 4.968-.093 6.692-.852.174-1.924.346-2.823.478-.09.003-.18 1.948-.09 1.948H15.88c2.964 0 6.37-.392 8.392-1.182 4.347-1.696 6.446-3.79 6.446-8.072 0-5.518-5.145-7.378-10.76-7.974zm-4.915 15.01H12.81V8.633c-.128 0 1.848 0 1.87.002 3.807.01 5.072 1.473 5.072 6.357 0 3.227-1.123 4.41-2.51 5.195-.8.453-1.637.866-3.06 1.13-.053 0-.13 1.618 0 1.618 4.89.91 6.706 2.543 6.706 7.362 0 4.96-1.783 6.86-5.845 6.86zM44.576 15.005c-6.44 0-12.148 4.72-12.148 13.196 0 6.75 3.77 11.748 12.085 11.748 7.408 0 9.874-4.56 10.512-5.93.167-.33.204-2.006-.005-1.838-1.287.997-3.524 2.312-6.434 2.312-4.018 0-7.314-1.958-7.51-8.25h14.036c.672-6.89-2.757-11.237-10.536-11.237zm-.09 1.94c1.686 0 2.3 1.558 2.307 6.678l-5.7.556c.185-5.428 1.445-7.235 3.394-7.235zM75.02 15.32c-.525-.272-1.057-.44-2.063-.44-2.654 0-5.05 2.834-6.193 6.075h-.18l.13-5.772c0-.09-.268-.35-.397-.306-3.866.785-5.6 1.088-10.413 2.002-.13.042-.088 1.682-.043 1.682.994.218 1.388.345 2.176.615.044 1.95.13 3.12.13 5.024v7.58c0 1.85-.042 3.98-.086 5.392-.777.132-1.104.177-2.09.352-.13 0-.22 1.856-.045 1.856h13.452c.046 0 .176-1.856.046-1.856-.825-.133-1.734-.257-2.595-.386v-14.12c1.298-.863 2.813-1.435 4.743-1.435 1.25 0 2.25.472 2.662.742h.554c.17 0 .388-6.916.213-7.005zM88.146 37.52c-.83-.13-.953-.177-1.814-.308v-25.54c0-2.953.13-5.14.13-6.782 0-.174-.27-.352-.4-.31-1.825.407-6.667 1.26-10.665 2.006-.13.042-.087 1.683-.043 1.683.977.213 1.396.35 2.17.616.043 1.95.13 3.117.13 5.026V31.78c0 1.858-.043 3.976-.087 5.392-.774.13-1.115.18-2.083.352-.13 0-.218 1.856-.046 1.856h12.66c.048-.002.178-1.86.048-1.86zM101.84 37.52c-.82-.13-.793-.177-1.648-.308v-15.25c0-2.953.128-5.135.128-6.78 0-.173-.27-.352-.397-.307-1.827.403-6.673 1.256-10.67 2.002-.13.042-.087 1.68-.043 1.68.992.22 1.388.346 2.174.618.043 1.95.13 3.12.13 5.024v7.577c0 1.85-.042 3.98-.087 5.392-.775.13-.617.176-1.6.35-.13 0-.22 1.857-.046 1.857h12.014c.045 0 .177-1.856.045-1.856zM95.828 13.555c2.597 0 4.676-1.812 4.676-4.35 0-2.577-2.08-4.347-4.676-4.347s-4.673 1.77-4.673 4.347c0 2.538 2.076 4.35 4.673 4.35zM130.67 37.52a32.39 32.39 0 0 0-2.13-.392v-14.82c0-5.88-2.5-7.3-6.753-7.3-3.426 0-6.33 1.825-7.98 4.06h-.177l.088-3.886c0-.09-.27-.35-.4-.306-3.855.778-5.608 1.088-10.412 2.002-.13.042-.087 1.68-.044 1.68.994.22 1.388.346 2.176.618.052 1.924.13 3.12.13 5.024v7.58c0 1.845-.042 3.982-.085 5.39-.777.13-.618.177-1.602.352-.13 0-.218 1.856-.045 1.856h12.503c.05 0 .178-1.856.045-1.856-.82-.132-1.275-.178-2.132-.31V20.966c.81-.6 1.736-1.193 3.396-1.193 1.778 0 2.61.875 2.61 3.218v8.79c0 1.846 0 3.393-.085 5.39-.774.132-1.052.178-2.045.353-.13.04-.218 1.856-.09 1.856h12.95c.086-.002.26-1.818.086-1.86z"/><path fill="#201748" d="M155.48 15.208l-6.155 2.143h-.106c-2.028-1.573-4.664-2.347-7.19-2.347-4.968 0-10.69 2.72-10.69 8.774 0 4.232 2.785 6.918 6.15 8.154v.178c-1.77.667-3.288 2.115-3.288 4.71 0 3.34 2.21 4.742 5.803 4.926 2.934.136 5.625.18 7.387.27 2.7.137 3.057.608 3.057 2.023 0 2.18-3.607 3.798-9.013 3.798-4.62 0-6.587-1.088-6.587-3.168 0-1.384.502-1.985.917-2.65.214-.34-4.666-.792-4.895-.527-.55.66-1.23 1.52-1.23 3.137 0 3.304 3.747 5.112 11.834 5.112 9.458 0 14.063-4.167 14.063-8.868 0-4.65-2.87-5.69-6.407-5.87-1.85-.09-4.147-.18-7.313-.316-2.1-.092-2.76-.545-2.76-1.553 0-.27.048-.498.152-.7.924.198 1.863.298 2.775.298 4.944 0 10.646-2.727 10.646-8.782 0-1.738-.47-3.292-1.242-4.552l4.093 1.117c.187.04.187-5.352-.002-5.305zM141.987 30.42c-1.85 0-2.607-1.655-2.607-6.644 0-4.73.758-6.506 2.606-6.506 1.847 0 2.647 1.688 2.647 6.675.04 4.608-.8 6.476-2.647 6.476zM168.048 23.65c-3.07-1.397-4.742-1.938-4.742-3.978 0-1.762 1.823-2.72 3.54-2.72 2.835 0 4.377 2.217 5.647 4.702h.977c.172 0 .3-5.41 0-5.584-1.276-.665-3.604-1.064-6.29-1.064-5.263 0-10.358 2.785-10.358 8.392 0 4.437 2.922 6.45 5.627 7.625 4.28 1.863 5.467 2.722 5.467 4.544 0 1.73-1.13 2.47-3.297 2.47-3.932 0-5.684-4.373-6.412-5.63h-1.02c-.173 0-.308 5.833 0 6.007 1.967.96 4.52 1.535 7.56 1.535 6.403 0 10.173-3.365 10.173-8.41 0-3.852-2.427-5.865-6.872-7.89zM188.664 37.52c-.83-.13-1.526-.177-2.384-.308v-25.54c0-2.953.128-5.14.128-6.782 0-.174-.272-.352-.4-.31-1.823.407-6.667 1.26-10.665 2.006-.132.043-.088 1.683-.043 1.683.973.213 1.39.35 2.17.616.045 1.95.132 3.12.132 5.026V31.78c0 1.858-.044 3.976-.087 5.392-.78.13-1.092.177-2.083.352-.132 0-.22 1.856-.05 1.856h13.235c.047-.002.18-1.86.047-1.86z"/><path fill="#201748" d="M200.57 35.54c-1.978-2.928-3.984-5.846-7.183-12.104v-.124c2.25-2.424 3.77-3.517 7.77-6.878v-.906c-1.257-.087-5.056-.122-6.352.004-1.983 3.648-3.075 5.413-7.68 11.946v.774c.897 2.486 1.566 3.776 2.98 6.313 1.26 2.255 1.977 3.307 3.013 4.512 2.69.215 7.09.3 9.752.3.09 0 .18-1.852.13-1.853-.926-.22-1.45-.52-2.43-1.984z"/><path fill="#201748" d="M224.324 32.18c-1.287.998-3.523 2.313-6.433 2.313-4.016 0-7.316-1.958-7.514-8.25h14.04c.67-6.893-2.758-11.238-10.536-11.238-6.444 0-12.15 4.72-12.15 13.196 0 6.75 3.77 11.748 12.09 11.748 7.406 0 9.87-4.56 10.51-5.93.166-.33.204-2.005-.006-1.837zM213.79 16.946c1.687 0 2.304 1.558 2.31 6.678l-5.703.556c.184-5.428 1.44-7.235 3.393-7.235zM273.03 11.254c.06-.048.117-.093.175-.132l-.434-.655a3.23 3.23 0 0 0-.235.178c-.245.2-.454.434-.622.693A4.123 4.123 0 0 0 269.27 8.9a1.955 1.955 0 0 0-1.91.297 1.968 1.968 0 0 0-.716 1.833c.64.248 1.38.163 1.944-.287.34-.27.562-.628.666-1.016a3.324 3.324 0 0 1 2.153 3.02 1.956 1.956 0 0 0-1.658-.946 1.968 1.968 0 0 0-1.713.98c.34.59.968.99 1.696.997a1.966 1.966 0 0 0 1.678-.932v.013h.003a3.104 3.104 0 0 0 2.07 3.1c.087.03.17.065.255.1-.65.06-1.26.424-1.58 1.05a1.952 1.952 0 0 0 .103 1.966 1.96 1.96 0 0 0 1.654-1.062 1.96 1.96 0 0 0-.07-1.912 4.962 4.962 0 0 1 2.952 4.585 2.596 2.596 0 0 0-2.98-1.03 2.6 2.6 0 0 0-1.515 1.3 2.623 2.623 0 0 0 .152 2.616 1.97 1.97 0 0 0 1.79.817 1.96 1.96 0 0 0-.177-1.956 1.92 1.92 0 0 0-1.19-.78 1.805 1.805 0 0 1 1.185-1.25 1.82 1.82 0 0 1 1.39.106c.745.374 1.218 1.42.966 2.036-.047.114-.1.228-.154.34l-1.983 3.922.704.354 1.985-3.92c.072-.15.14-.303.2-.457.133.642.575 1.205 1.23 1.452a1.977 1.977 0 0 0 1.94-.327 1.958 1.958 0 0 0-3.124-1.243 5.684 5.684 0 0 0 .36-1.667 5.76 5.76 0 0 0-3.833-5.782 2.32 2.32 0 0 1-1.546-2.33c.02-.316.105-.62.25-.904.14-.28.34-.524.582-.726zm-5.154 15.717v.787a3.473 3.473 0 0 0 3.472-3.468c0-1.316-.73-2.503-1.9-3.1l-.357.7c.91.463 1.472 1.382 1.472 2.4a2.69 2.69 0 0 1-2.686 2.68zm2.876-6.32v-5.53h-.394c-.796 0-1.22-.337-1.67-.694-.59-.47-1.264-1-2.605-.488l.28.735c.924-.353 1.285-.066 1.836.37.423.333.935.74 1.765.84v4.77h.787zm-5.41 12.275h-.786c0 .734-.31 1.44-.868 1.988l.546.565c.715-.697 1.108-1.604 1.108-2.553zm-4.233 1.988c-.56-.544-.867-1.25-.867-1.988h-.786c0 .953.394 1.856 1.105 2.554l.547-.567zm-2.678-20.24l.282-.735c-1.345-.512-2.016.02-2.607.488-.45.356-.876.694-1.67.694h-.395v5.532h.786v-4.77c.83-.1 1.343-.504 1.767-.84.55-.435.912-.722 1.837-.37zm-2.73 7.217l-.354-.7a3.46 3.46 0 0 0-1.9 3.098 3.474 3.474 0 0 0 3.473 3.468v-.786a2.69 2.69 0 0 1-2.687-2.684c0-1.015.562-1.933 1.47-2.396zm-1.006 10.55c.356.138.723.28 1.125.387a5.28 5.28 0 0 0 1.334.188c1.357 0 2.026-.707 2.354-1.387.123-.252.182-.53.18-.807.377-.328.66-.735.816-1.193.396-1.164.095-1.85.06-1.923l-.71.332c.008.02.194.48-.096 1.337a1.86 1.86 0 0 1-.327.585 1.506 1.506 0 0 0-.747-.598 1.444 1.444 0 0 0-1.125.043 1.39 1.39 0 0 0-.72.792c-.112.324-.094.67.054.973l.707-.347a.457.457 0 0 1-.017-.363.61.61 0 0 1 .307-.345.68.68 0 0 1 .52-.015c.188.067.34.21.417.383.046.102.07.203.077.304v.003a1.03 1.03 0 0 1-.1.498l-.04.073c-.447.75-1.178 1.035-1.96.603-.822-.45-1.2-1.468-.76-2.65l-.003.004c.126-.338.13-.654-.046-.912-.12-.18-.368-.387-.872-.387-.618 0-1.468.326-2.27.872-1.63 1.108-1.98 2.195-1.61 2.74.12.173.365.383.866.383.105 0 .22-.013.336-.03v.003c.923-.102 1.536.174 2.252.457zm-2.587-1.216c-.166 0-.216-.04-.216-.04-.076-.15.32-.91 1.397-1.646.66-.448 1.38-.737 1.832-.737.154 0 .215.035.22.04.06.13-.253.87-1.4 1.65-.66.445-1.377.738-1.833.734zm-1.55-6.857a1.97 1.97 0 0 0 1.79-.817c.07-.1.126-.205.175-.312.02-.04.034-.077.05-.115.006-.017.015-.032.02-.05a2.622 2.622 0 0 0-.1-2.12 2.597 2.597 0 0 0-1.52-1.3 2.576 2.576 0 0 0-1.986.15c-.412.208-.747.515-.99.88a4.966 4.966 0 0 1 2.96-4.59c-.343.567-.4 1.29-.076 1.92.33.646.975 1.027 1.653 1.062a1.954 1.954 0 0 0-1.486-3.018c.085-.037.17-.073.26-.104a3.106 3.106 0 0 0 2.07-3.1v-.014c.35.562.973.942 1.68.936a1.97 1.97 0 0 0 1.695-.997 1.963 1.963 0 0 0-1.71-.98 1.958 1.958 0 0 0-1.66.95 2.624 2.624 0 0 1 2.617-2.517v-.786c-1.356 0-2.533.8-3.08 1.954a3.098 3.098 0 0 0-.9-.933l-.433.655c.06.04.115.084.173.13a2.275 2.275 0 0 1 .833 1.63 2.318 2.318 0 0 1-1.542 2.33 5.763 5.763 0 0 0-3.834 5.782c.038.588.163 1.16.372 1.704a1.956 1.956 0 0 0-3.142 1.228c.525.427 1.256.58 1.938.326a1.963 1.963 0 0 0 1.235-1.475c.064.154.132.307.205.457l1.984 3.92.703-.353s-1.784-3.552-2.113-4.218c-.33-.665.182-1.7.94-2.08a1.81 1.81 0 0 1 1.39-.106 1.812 1.812 0 0 1 1.184 1.235c-.46.1-.887.357-1.18.777a1.958 1.958 0 0 0-.177 1.955zm17.083 8.648c.387 0 .83-.056 1.333-.188.402-.105.77-.25 1.124-.387.717-.283 1.33-.56 2.252-.458v-.004c.116.02.23.03.335.03.5 0 .75-.21.865-.383.37-.544.02-1.63-1.606-2.74-.805-.545-1.655-.87-2.272-.87-.5 0-.75.207-.872.386-.176.26-.172.575-.047.913l-.002-.003c.438 1.182.06 2.198-.76 2.65-.782.433-1.514.146-1.963-.603l-.036-.073a1.09 1.09 0 0 1-.102-.498l.004-.003a.773.773 0 0 1 .073-.304.737.737 0 0 1 .417-.384.672.672 0 0 1 .52.015.588.588 0 0 1 .306.346.444.444 0 0 1-.015.364l.707.347c.146-.304.166-.648.052-.973a1.4 1.4 0 0 0-.716-.792 1.45 1.45 0 0 0-1.126-.043 1.51 1.51 0 0 0-.75.597 1.834 1.834 0 0 1-.325-.585c-.293-.857-.106-1.315-.096-1.337l-.714-.332c-.032.074-.334.76.062 1.923.156.458.438.865.816 1.194a1.8 1.8 0 0 0 .18.807c.328.68.997 1.388 2.355 1.388zm2.03-4.214c.45 0 1.17.29 1.83.738 1.08.734 1.475 1.495 1.397 1.646 0 0-.048.04-.214.04-.455.004-1.174-.29-1.834-.734-1.146-.778-1.46-1.52-1.4-1.65.005-.005.068-.04.22-.04zm-7.277 1.852c.362.482.575 1.19.575 1.943h.786c0-1.155-.41-2.207-1.1-2.814l-.258-.23-.26.23c-.692.608-1.104 1.66-1.104 2.815h.786c.002-.752.218-1.46.576-1.943zm17.812-.537c-.783 0-1.56.12-2.31.353l.233.75a7 7 0 0 1 2.077-.317c.77 0 1.524.128 2.233.37l.254-.743a7.578 7.578 0 0 0-2.486-.412zm2.528-5.343l-3.522 1.19a1.227 1.227 0 0 0-.42.243 1.21 1.21 0 0 0-.354 1.22 5.244 5.244 0 0 0-1.655 2.274c-.166.45-.27.927-.308 1.412l.39.03-.39-.027a4.48 4.48 0 0 1-.26 1.2 4.44 4.44 0 0 1-4.143 2.89c.02-.15.028-.306.028-.46 0-.048 0-.098-.003-.146a3.837 3.837 0 0 0 3.55-2.493c.157-.43.232-.875.232-1.323a3.816 3.816 0 0 0-3.814-3.813v.787a3.03 3.03 0 0 1 2.84 4.08 3.04 3.04 0 0 1-2.84 1.977h-.08c-.08-.32-.203-.63-.362-.92l-1.423.79a2.23 2.23 0 0 1-.83 2.98l.825 1.41a4.04 4.04 0 0 0 .838-.667h1.03a6.62 6.62 0 0 0 4.977-2.255 4.166 4.166 0 0 1 3.164-1.468c.765 0 1.51.21 2.156.604l.41-.67a4.875 4.875 0 0 0-2.566-.723 4.932 4.932 0 0 0-3.756 1.743 5.843 5.843 0 0 1-4.383 1.98h-.454c.113-.202.206-.41.282-.63h.172c2.17 0 4.13-1.365 4.888-3.4.165-.457.267-.934.304-1.416.03-.413.12-.815.26-1.203a4.45 4.45 0 0 1 1.367-1.9A1.2 1.2 0 0 0 280.4 28l2.772-2.48a.443.443 0 0 0-.436-.748zM258.44 3.684l.774-.128-.034-.21c-.01-.056-.024-.132-.028-.184a1.63 1.63 0 0 1 .183-.046c.193-.046.415-.096.583-.265.17-.168.224-.402.267-.59a1.9 1.9 0 0 1 .043-.173c.054.003.127.016.18.025.19.032.427.07.652-.022.216-.092.345-.275.462-.437.033-.046.076-.11.11-.15.046.024.107.063.15.09.166.104.372.233.614.233.24 0 .445-.128.61-.23a2.4 2.4 0 0 1 .15-.09c.038.04.08.102.115.148.117.162.246.345.468.44.22.09.458.05.647.02a2.2 2.2 0 0 1 .18-.026c.014.05.03.123.042.177.043.187.1.42.267.588.17.168.4.222.587.265.053.012.127.03.177.045-.004.05-.017.124-.025.177-.03.19-.07.43.02.65.094.218.278.35.44.465.046.032.107.077.147.11-.022.046-.063.106-.09.15-.104.166-.233.37-.233.616 0 .245.13.45.233.614.027.046.067.106.09.15-.04.035-.103.08-.146.11-.165.118-.35.25-.442.468-.093.222-.052.458-.018.648.01.054.02.126.023.178a2.33 2.33 0 0 1-.174.045c-.19.043-.425.097-.587.264-.172.168-.228.4-.27.586l-.014.06.765.183.016-.064c.015-.066.036-.163.056-.204.042-.02.14-.042.207-.058.225-.05.504-.115.674-.366.162-.247.117-.53.076-.754a1.317 1.317 0 0 1-.023-.214c.03-.035.11-.09.165-.13.188-.135.424-.302.482-.6.056-.288-.095-.527-.215-.72a1.145 1.145 0 0 1-.11-.195c.015-.044.073-.138.11-.196.12-.19.27-.43.215-.72-.06-.297-.304-.472-.484-.6a1.568 1.568 0 0 1-.166-.128c0-.047.016-.147.026-.216.038-.226.086-.507-.082-.76-.17-.243-.445-.308-.67-.358-.063-.015-.16-.037-.203-.057-.02-.043-.042-.14-.057-.206-.052-.226-.116-.505-.368-.674-.247-.16-.525-.115-.753-.077-.068.01-.17.027-.21.027h-.002a1.477 1.477 0 0 1-.132-.167c-.133-.19-.3-.423-.596-.485-.29-.056-.53.095-.725.216-.062.04-.15.094-.194.11a1.14 1.14 0 0 1-.193-.11c-.193-.12-.434-.27-.73-.214-.29.06-.46.295-.595.484-.04.056-.1.142-.122.166-.046.003-.15-.014-.222-.025-.223-.037-.503-.083-.758.082-.246.167-.307.444-.36.668-.015.07-.038.173-.05.205a1.39 1.39 0 0 1-.21.058c-.228.052-.507.118-.673.368-.167.247-.117.53-.08.758l.04.206zm11.78 35.388l-4.083-.75a1.195 1.195 0 0 0-1.348.79h-.108c-.538 0-1.035-.12-1.502-.317.633-.45 1.207-.985 1.75-1.49 1.484-1.38 2.766-2.572 4.564-1.793l.312-.722c-2.27-.982-3.867.5-5.413 1.938-.05.045-.1.092-.146.138-.99-.74-1.453-2.102-1.453-4.27h-.787c0 3.054-.977 3.932-1.452 4.273l-.15-.143c-1.546-1.438-3.142-2.92-5.412-1.938l.31.72c1.8-.778 3.08.413 4.565 1.795.544.504 1.118 1.038 1.75 1.49a3.832 3.832 0 0 1-1.505.315h-.102a1.198 1.198 0 0 0-1.347-.79l-4.082.75a.446.446 0 0 0-.353.354c-.043.24.118.47.356.514l4.08.742a1.19 1.19 0 0 0 1.344-.783h.105c.852 0 1.604-.242 2.285-.61.685.368 1.438.61 2.285.61h.11c.19.547.756.89 1.345.783l4.08-.742a.442.442 0 0 0 .353-.354.437.437 0 0 0-.35-.512zm7.35-6.992l.328.716a5.48 5.48 0 0 1 2.31-.504 5.48 5.48 0 0 1 2.165.44l.308-.727c-.78-.33-1.61-.5-2.472-.5a6.3 6.3 0 0 0-2.64.575zm5.068-17.282l-.166-.276-1.062.54a15.48 15.48 0 0 0-2.614-3.574c.338-.484.673-.968 1.008-1.453l.362-.53-.635-.083c-1.27-.168-2.036-1.106-2.85-2.1-.763-.933-1.55-1.893-2.786-2.26V3.464l-.283-.083a9.925 9.925 0 0 0-5.632 0l-.282.084V7.77l.506-.154c.77-.23 1.58-.357 2.38-.373v1.244l.64.084c1.27.168 2.043 1.106 2.854 2.1.378.46.762.93 1.204 1.328l-.98.942.38.354c1.762 1.66 2.747 3.07 3.765 5.393l.178.404 1.06-.622c.175.615.237 1.272.222 2.173l-.01.523.505-.133c1.123-.3 2.24-.6 3.363-.898l.284-.076.007-.297c.03-1.867-.337-3.166-1.416-4.962zM270.795 6.45c-.78 0-1.56.094-2.313.278V4.056a9.15 9.15 0 0 1 4.625 0v2.672c-.1-.023-.2-.047-.297-.068a9.798 9.798 0 0 0-.86-.14 9.684 9.684 0 0 0-1.155-.07zm3.89 3.723c-.66-.803-1.335-1.63-2.305-2.076l1.514-.328V5.893c.89.352 1.52 1.122 2.177 1.926.758.923 1.538 1.874 2.753 2.25-.195.284-1.5 2.166-1.5 2.166a2.928 2.928 0 0 1-.787-.293 3.77 3.77 0 0 1-.63-.44c-.44-.375-.824-.844-1.22-1.33zm5.062 7.347l-.34.2-.428.25c-.928-2.033-1.868-3.39-3.39-4.884h2.1l.65-.937a14.61 14.61 0 0 1 2.33 3.198c.048.085.09.17.137.258a23.816 23.816 0 0 1 .49 1.007l-1.208.71-.343.197zm.94 2.62c-.01-.823-.11-1.463-.307-2.078l1.92-1.126.037-1.072c.666 1.25.922 2.252.93 3.588l-2.58.687zm-38.57 11.866l.305.726c.683-.29 1.41-.44 2.166-.44a5.5 5.5 0 0 1 2.31.505l.328-.716a6.268 6.268 0 0 0-2.638-.574c-.86 0-1.693.17-2.472.5zm14.588-22.003c0 .475.188.922.522 1.256.15.158.338.266.516.362.145.08.17.104.17.28v.647c0 .39.214.614.59.614h.79c.124.237.29.465.505.676l.08.07c.218.195.473.364.75.498-.13.412-.517.712-.97.712l-.724.002a1.366 1.366 0 0 0-.974.397c-.344.344-.46.827-.36 1.27h-1.255v3.593l.114.114a1.53 1.53 0 0 1 0 2.162l-.115.115v2.417c0 .934.76 1.696 1.692 1.696h2.985l1.376 1.376 1.37-1.376h2.985a1.7 1.7 0 0 0 1.696-1.696v-2.417l-.118-.116a1.517 1.517 0 0 1-.448-1.08c0-.408.16-.792.45-1.083l.115-.114V16.79h-1.258c.102-.442-.02-.926-.362-1.272a1.35 1.35 0 0 0-.964-.397h-.73c-.456 0-.84-.3-.973-.713.28-.136.533-.303.746-.498.027-.025.055-.048.086-.08.485-.474.74-1.036.74-1.627 0-.92-.623-1.765-1.64-2.234V6.853h-.787v.583l-.21-.036c-.27-.052-.64-.124-1-.196h-.007v-.31c.553.016.813-.18 1.09-.616l1.194-2.157a.448.448 0 0 0-.097-.578.436.436 0 0 0-.615.077s-.113.15-.288.37c-.176.212-.406.5-.646.79-.218.258-.436.523-.626.725v-.252c.01-.057 0-.114 0-.172 0-.337-.125-.644-.334-.88.03-.02.06-.04.09-.065V4.13a.524.524 0 0 0 .17-.392.523.523 0 0 0-.516-.524.522.522 0 0 0-.524.524h-.91c-.15 0-.328.12-.396.258l-.107.232c-.056.14-.224.257-.36.257h-.858v.68c0 .152.115.32.257.375l1.185.455c.028.03.06.055.09.082l-2.666 2.666c-.333.336-.52.784-.52 1.26zm1.813 6.072a.578.578 0 0 1 .802-.013l.586.727h-1.465a.576.576 0 0 1 .078-.715zm4.895 9.286h-.786v-1.038l.786-.958v1.997zm1.775 0h-.787v-3.2l.788-.955v4.156zm-.13-5.23l-.656.79-1.185 1.443-.59.718-1.804 2.197h-2.355l5.92-6.957h2.15l-1.48 1.81zm.417-4.067a.578.578 0 0 1 .802.01.58.58 0 0 1 .08.716h-1.47l.588-.727zm-.827-.227L262.66 18.3h-.527l-1.987-2.464a1.816 1.816 0 0 0 1.222-1.16c.037.008.07.018.11.026l.034.008c.313.067.602.1.882.1.283 0 .57-.033.89-.102l.032-.007c.04-.008.076-.017.113-.026.19.562.647 1 1.218 1.162zm-1.087-5.24l.096.037c.8.33 1.297.932 1.297 1.57 0 .473-.273.84-.495 1.06l-.05.043-.017.015c-.29.27-.68.47-1.13.586l-.12.03-.024.006c-.522.11-.925.11-1.435 0l-.03-.006c-.04-.01-.08-.018-.125-.03a2.646 2.646 0 0 1-1.125-.587l-.02-.018-.037-.03c-.23-.228-.506-.596-.506-1.07 0-.637.5-1.24 1.3-1.57l.044-.02a3.758 3.758 0 0 1 .44-.134l.083-.02a3.18 3.18 0 0 1 1.304-.02c.025.004.05.01.078.018l.076.018c.153.037.288.077.4.12zm-2.91-2.25h.635v-.002h2.026v1.36a3.95 3.95 0 0 0-1.796-.008c-.02.003-.04.008-.067.014h-.003v-.58h-.793a.57.57 0 0 0-.567.572h-.785c0-.747.607-1.356 1.353-1.356zm1.744 2.46c-.35.585-.985.77-1.717.77v1.4c.728 0 1.366.137 1.717.72.35-.584.988-.72 1.718-.72v-1.4c-.732 0-1.37-.184-1.718-.77zm0 4.843a.53.53 0 1 0 .002 1.057.53.53 0 0 0-.002-1.058zm-6.973 21.016a2.23 2.23 0 0 1-.828-2.98l-1.422-.79c-.16.287-.282.6-.362.918h-.08a3.04 3.04 0 0 1-2.842-1.976 3.03 3.03 0 0 1 2.84-4.08v-.787a3.817 3.817 0 0 0-3.58 5.137 3.834 3.834 0 0 0 3.55 2.492c-.003.048-.007.098-.007.146 0 .153.013.308.03.458a4.44 4.44 0 0 1-4.14-2.885 4.543 4.543 0 0 1-.26-1.205h-.005l.004-.003a5.295 5.295 0 0 0-.31-1.415 5.254 5.254 0 0 0-1.683-2.294 1.2 1.2 0 0 0-.746-1.44l-3.896-1.42a.446.446 0 0 0-.485.126.443.443 0 0 0 .044.62l3.148 2.71a1.194 1.194 0 0 0 1.492.055c.624.5 1.11 1.16 1.392 1.916.142.39.23.79.262 1.204.037.482.138.96.306 1.417a5.228 5.228 0 0 0 4.884 3.4h.176c.074.22.166.43.28.63h-.456a5.827 5.827 0 0 1-4.376-1.978 4.945 4.945 0 0 0-3.763-1.746 4.87 4.87 0 0 0-2.565.724l.408.67a4.127 4.127 0 0 1 2.156-.605 4.16 4.16 0 0 1 3.166 1.474 6.624 6.624 0 0 0 4.972 2.248h1.032c.247.254.526.482.836.667l.825-1.41zm-13.323-6.14l.256.742a7.06 7.06 0 0 1 4.312-.052l.234-.75a7.81 7.81 0 0 0-2.312-.352c-.857 0-1.695.14-2.49.412zm2.81-9.36l-.01-.522c-.018-.9.044-1.558.22-2.173l1.06.624.18-.404c1.017-2.323 2-3.733 3.763-5.393l.377-.354-.977-.942c.442-.396.823-.866 1.2-1.327.814-.994 1.582-1.933 2.855-2.1l.64-.083V7.244a8.982 8.982 0 0 1 2.383.373l.503.153V3.464l-.278-.083a9.94 9.94 0 0 0-5.637 0l-.28.084v1.598c-1.236.367-2.022 1.327-2.787 2.26-.812.993-1.582 1.93-2.85 2.1l-.637.084.366.53c.332.483.67.967 1.004 1.452a15.406 15.406 0 0 0-2.61 3.573l-1.062-.538-.168.276c-1.075 1.796-1.447 3.095-1.413 4.963l.005.298.286.076c1.124.298 2.242.598 3.363.898l.507.134zm6.785-17.11a9.144 9.144 0 0 1 4.623 0v2.672a9.765 9.765 0 0 0-4.624 0V4.056zm-5.715 6.013c1.217-.376 1.993-1.327 2.748-2.25.66-.804 1.29-1.574 2.18-1.926V7.77l1.513.327c-.968.447-1.643 1.273-2.304 2.076-.396.485-.78.955-1.22 1.33a3.77 3.77 0 0 1-.63.44 3.335 3.335 0 0 1-.417.19 2.76 2.76 0 0 1-.37.104s-1.305-1.883-1.5-2.168zm-2.166 5.886c.06-.12.12-.236.182-.35.043-.09.09-.173.136-.26a14.683 14.683 0 0 1 2.33-3.198l.652.937h2.1c-1.522 1.495-2.465 2.852-3.393 4.885l-2.315-1.36c.1-.223.204-.442.31-.654zm-2.28 3.496c.012-1.336.266-2.34.93-3.588l.04 1.072 1.92 1.126c-.2.615-.296 1.255-.31 2.077-.86-.23-1.718-.46-2.58-.688z"/></svg>