<svg xmlns="http://www.w3.org/2000/svg" viewBox="0 0 388.347 127.56"><path fill="#CD0403" d="M0 0h388.347v127.56H0z"/><path fill="#FFF" d="M26.318 102.47V25.09h91.958c43.4 0 48.334 2.02 48.334 16.82 0 12.897-5.383 16.935-34.877 16.935h-7.4v5.384h7.4c31.064 0 36.11 4.26 36.11 17.493 0 18.39-9.084 20.746-50.8 20.746H26.317zM76.67 56.153h25.793c10.99 0 12.336-2.13 12.336-10.093 0-6.39-2.132-8.073-12.337-8.073H76.67v18.167zm0 33.082h25.793c12 0 14.02-2.468 14.02-10.766 0-7.625-1.57-10.43-14.244-10.43H76.67v21.196zM221 102.47V41.24h-44.746V25.09H319.01v16.148h-44.854v61.23H221z"/></svg>