<svg xmlns="http://www.w3.org/2000/svg" width="300" height="40"><path d="M49.273 7.092v2.39c0 .09-.026.172-.078.25a.295.295 0 0 1-.21.134l-2.006.308a6.594 6.594 0 0 1-.405.983c.243.347.622.84 1.136 1.484a.35.35 0 0 1 .116.252.39.39 0 0 1-.095.25c-.192.27-.546.662-1.06 1.175-.514.515-.854.765-1.02.752a.47.47 0 0 1-.27-.097l-1.485-1.156a5.79 5.79 0 0 1-.982.404c-.116.977-.218 1.645-.31 2.005-.05.205-.178.31-.384.31h-2.39a.412.412 0 0 1-.27-.098.29.29 0 0 1-.116-.23l-.31-1.986a6.534 6.534 0 0 1-.962-.403l-1.523 1.156a.408.408 0 0 1-.27.096.368.368 0 0 1-.27-.117c-.9-.82-1.492-1.425-1.773-1.81a.383.383 0 0 1 .02-.48c.102-.155.282-.393.54-.714.255-.32.448-.578.577-.77a5.555 5.555 0 0 1-.443-1.06l-1.965-.29a.288.288 0 0 1-.21-.136.577.577 0 0 1-.097-.25v-2.39c0-.09.032-.173.096-.25.064-.078.128-.123.193-.135l2.004-.31c.104-.32.245-.648.425-.982-.296-.41-.68-.906-1.156-1.483-.08-.09-.117-.174-.117-.25s.032-.162.096-.25c.192-.258.545-.643 1.06-1.157.513-.514.853-.77 1.02-.77.09 0 .187.03.29.095l1.483 1.157c.308-.168.63-.302.963-.406.116-.976.226-1.644.33-2.003.037-.203.166-.307.385-.307h2.39c.09 0 .174.032.25.096a.362.362 0 0 1 .136.23l.29 1.986c.36.116.68.245.963.385L45.4 1.56a.326.326 0 0 1 .24-.095c.097 0 .19.032.28.096.924.862 1.515 1.472 1.772 1.832a.356.356 0 0 1 .077.23c0 .09-.026.174-.078.25-.115.155-.3.393-.558.713-.258.322-.45.58-.58.77.18.36.33.708.445 1.043l1.964.308c.09.013.167.057.23.135.066.078.092.162.08.252zm-5.51 1.175c0-.758-.265-1.406-.792-1.946-.526-.538-1.174-.808-1.946-.808-.77 0-1.418.27-1.946.81a2.76 2.76 0 0 0-.81 1.945c-.012.758.257 1.407.81 1.947.552.54 1.2.81 1.946.81s1.395-.27 1.947-.81c.554-.54.818-1.19.792-1.947zM68.543 15.07c0-1.068.552-2.005 1.657-2.814 1.104-.81 2.563-1.214 4.374-1.214 1.747 0 3.186.405 4.316 1.214 1.13.81 1.696 1.747 1.696 2.813 0 .525-.57.988-1.714 1.386-1.144.4-2.576.604-4.298.617-1.798 0-3.256-.206-4.374-.617-1.117-.41-1.67-.873-1.657-1.387zM74.573 0c1.376 0 2.55.495 3.53 1.484.975.99 1.47 2.165 1.482 3.526.013 1.362-.48 2.543-1.483 3.545-1.003 1.002-2.178 1.49-3.528 1.465-1.348-.026-2.53-.513-3.545-1.465-1.016-.95-1.504-2.133-1.465-3.545.038-1.413.526-2.588 1.464-3.526C71.965.546 73.15.05 74.573 0zM114.232 12.333l4.895 4.913-2.023 2.023-4.895-4.895c-1.363.924-2.853 1.387-4.47 1.387-2.172 0-4.03-.77-5.57-2.312-1.542-1.54-2.313-3.397-2.313-5.568 0-2.17.77-4.028 2.312-5.57C103.71.773 105.566 0 107.737 0c2.17 0 4.027.77 5.57 2.312 1.54 1.54 2.31 3.398 2.31 5.57a7.638 7.638 0 0 1-1.386 4.45zm-1.253-4.45c0-1.453-.51-2.693-1.523-3.72-1.015-1.028-2.255-1.543-3.72-1.543-1.464 0-2.704.514-3.72 1.542-1.013 1.028-1.527 2.268-1.54 3.72-.012 1.45.5 2.684 1.54 3.7 1.043 1.015 2.282 1.53 3.72 1.54 1.44.015 2.68-.5 3.72-1.54s1.548-2.275 1.522-3.7z"/><g><path d="M.964 1.928a.917.917 0 0 1-.674-.29A.954.954 0 0 1 .27.29C.45.097.68 0 .964 0h11.562c.283 0 .514.097.693.29a.96.96 0 0 1 .27.674.925.925 0 0 1-.29.674.926.926 0 0 1-.674.29H.964zm11.56 1.927c.284 0 .515.096.694.29a.96.96 0 0 1 .27.673.93.93 0 0 1-.288.675.928.928 0 0 1-.675.288H.965a.922.922 0 0 1-.675-.287.954.954 0 0 1-.02-1.35c.18-.192.41-.288.694-.288h11.56zm0 3.853c.284 0 .515.097.694.29a.96.96 0 0 1 .27.674.93.93 0 0 1-.288.675.93.93 0 0 1-.675.29H.965a.92.92 0 0 1-.675-.29.924.924 0 0 1-.29-.675c0-.256.09-.482.27-.674a.91.91 0 0 1 .694-.29h11.56z"/></g></svg>