<svg xmlns="http://www.w3.org/2000/svg" width="1920" height="1080"><path d="M401.257 88.038v24.924c0 .94-.27 1.81-.804 2.613-.537.804-1.275 1.275-2.21 1.407l-20.905 3.216c-1.34 4.02-2.748 7.437-4.22 10.25 2.543 3.62 6.497 8.78 11.858 15.478.804.804 1.206 1.677 1.206 2.612 0 .94-.336 1.81-1.005 2.613-2.01 2.815-5.697 6.904-11.055 12.262-5.36 5.36-8.913 7.972-10.653 7.84-.94 0-1.88-.337-2.815-1.006l-15.477-12.06a61.116 61.116 0 0 1-10.25 4.22c-1.207 10.183-2.28 17.152-3.217 20.905-.536 2.143-1.877 3.217-4.02 3.217h-24.923c-1.074 0-2.01-.336-2.814-1.005-.804-.672-1.206-1.477-1.206-2.412l-3.216-20.703c-3.617-1.206-6.968-2.612-10.05-4.22l-15.878 12.06c-.804.668-1.743 1.004-2.814 1.004-1.074 0-2.01-.4-2.814-1.204-9.38-8.574-15.546-14.874-18.492-18.895-.537-.668-.804-1.472-.804-2.41 0-.937.333-1.81 1.005-2.613 1.07-1.608 2.946-4.086 5.628-7.438 2.68-3.35 4.69-6.03 6.03-8.04-2.01-3.75-3.55-7.438-4.622-11.056l-20.502-3.015c-.94-.133-1.677-.604-2.21-1.408A6.206 6.206 0 0 1 229 112.56V87.635c0-.936.333-1.81 1.005-2.613.67-.804 1.338-1.272 2.01-1.407L252.92 80.4c1.07-3.348 2.543-6.765 4.42-10.25-3.083-4.288-7.103-9.448-12.06-15.478-.803-.936-1.205-1.81-1.205-2.613 0-.805.333-1.675 1.005-2.614 2.01-2.68 5.694-6.7 11.055-12.06 5.358-5.358 8.91-8.04 10.653-8.04.936 0 1.94.336 3.015 1.005l15.477 12.06a55.25 55.25 0 0 1 10.05-4.22c1.206-10.182 2.343-17.15 3.417-20.904.402-2.142 1.74-3.216 4.02-3.216h24.924c.937 0 1.81.336 2.614 1.005.804.672 1.272 1.476 1.407 2.412l3.016 20.703c3.75 1.206 7.1 2.547 10.05 4.02l16.08-11.86c.67-.668 1.508-1.004 2.513-1.004s1.975.336 2.914 1.005c9.648 8.98 15.81 15.346 18.492 19.096.534.672.804 1.476.804 2.412 0 .94-.27 1.81-.804 2.613-1.206 1.61-3.15 4.09-5.83 7.438-2.68 3.35-4.69 6.03-6.03 8.04 1.876 3.753 3.418 7.37 4.624 10.854l20.502 3.216c.936.135 1.74.603 2.412 1.407.668.804.935 1.677.803 2.613zm-57.486 12.26c0-7.904-2.747-14.672-8.24-20.3-5.496-5.628-12.26-8.442-20.3-8.442-8.04 0-14.81 2.814-20.302 8.442-5.496 5.628-8.31 12.396-8.442 20.3-.135 7.91 2.68 14.674 8.442 20.302 5.76 5.628 12.528 8.442 20.3 8.442 7.77 0 14.54-2.814 20.302-8.442 5.76-5.628 8.508-12.393 8.24-20.3zM532.255 168.438c0-11.12 5.76-20.904 17.286-29.346 11.523-8.442 26.733-12.663 45.628-12.663 18.222 0 33.23 4.22 45.023 12.662 11.79 8.442 17.69 18.225 17.69 29.346 0 5.493-5.965 10.316-17.89 14.472-11.93 4.152-26.868 6.297-44.823 6.433-18.763 0-33.97-2.146-45.627-6.433-11.657-4.29-17.417-9.115-17.285-14.472zm62.913-157.182c14.337 0 26.598 5.16 36.782 15.477 10.183 10.32 15.343 22.58 15.478 36.783.132 14.205-5.025 26.532-15.478 36.984-10.45 10.452-22.713 15.546-36.782 15.276-14.07-.267-26.4-5.358-36.984-15.276-10.587-9.915-15.678-22.242-15.275-36.984.4-14.74 5.49-27 15.274-36.783 9.78-9.78 22.11-14.94 36.984-15.477zM918.824 128.64l51.055 51.255L948.773 201l-51.054-51.055c-14.205 9.648-29.748 14.472-46.632 14.472-22.647 0-42.01-8.04-58.09-24.12s-24.12-35.44-24.12-58.088c0-22.645 8.04-42.01 24.12-58.09S828.44 0 851.09 0c22.644 0 42.01 8.04 58.09 24.12s24.12 35.445 24.12 58.09c0 17.018-4.825 32.495-14.474 46.43zM905.76 82.208c0-15.14-5.295-28.07-15.88-38.793-10.586-10.72-23.517-16.08-38.792-16.08-15.276 0-28.21 5.36-38.793 16.08-10.587 10.722-15.948 23.652-16.08 38.793-.135 15.144 5.226 28.008 16.08 38.592 10.854 10.587 23.784 15.948 38.793 16.08 15.006.135 27.938-5.226 38.793-16.08 10.854-10.853 16.146-23.717 15.88-38.592zM138 64.648c0 3.3-2.7 6-6 6H6c-3.3 0-6-2.7-6-6v-9c0-3.3 2.7-6 6-6h126c3.3 0 6 2.7 6 6v9zM138 104.648c0 3.3-2.7 6-6 6H6c-3.3 0-6-2.7-6-6v-9c0-3.3 2.7-6 6-6h126c3.3 0 6 2.7 6 6v9zM138 144.648c0 3.3-2.7 6-6 6H6c-3.3 0-6-2.7-6-6v-9c0-3.3 2.7-6 6-6h126c3.3 0 6 2.7 6 6v9z"/></svg>