<?xml version="1.0" encoding="utf-8"?>
<!-- Generator: Adobe Illustrator 16.0.0, SVG Export Plug-In . SVG Version: 6.00 Build 0)  -->
<!DOCTYPE svg PUBLIC "-//W3C//DTD SVG 1.1//EN" "http://www.w3.org/Graphics/SVG/1.1/DTD/svg11.dtd">
<svg version="1.1" id="Layer_1" xmlns="http://www.w3.org/2000/svg" xmlns:xlink="http://www.w3.org/1999/xlink" x="0px" y="0px"
	 width="17px" height="17px" viewBox="0 0 17 17" enable-background="new 0 0 17 17" xml:space="preserve">
<g>
	<path d="M1.396,15.811c0.433-0.066,0.952-0.154,1.363-0.24c0.042-0.844,0.042-2.335,0.042-3.265V1.429L1.354,1.192
		c-0.044,0,0-0.801,0.042-0.801h6.855c4.993,0,6.595,1.213,6.595,3.872c0,1.989-1.535,3.199-4.023,3.761v0.109
		c2.488,0.258,4.843,1.211,4.843,3.912c0,2.14-0.991,3.158-3.111,3.999c-0.844,0.326-2.551,0.564-3.979,0.564H1.354
		C1.31,16.608,1.354,15.811,1.396,15.811z M7.71,7.57c0.648,0,1.276-0.129,1.752-0.432c0.647-0.411,1.166-0.931,1.166-2.529
		c0-2.359-0.756-3.201-2.723-3.201H7.342V7.57H7.71z M8.271,15.593c1.904,0,2.877-1.038,2.877-3.459
		c0-2.444-1.124-3.309-3.806-3.396v6.855H8.271z"/>
</g>
</svg>
