


<svg  xmlns="http://www.w3.org/2000/svg" xmlns:xlink="http://www.w3.org/1999/xlink" viewBox="0 0 284.5 50.25" >
<line fill="none" stroke="#201748" stroke-width="0.5" x1="232.76" y1="4.689" x2="232.76" y2="40.116"/>
<path fill="#201748" d="M19.958,22.148v-0.224c5.703-1.23,9.001-3.557,9.001-7.904c0-5.118-3.245-7.603-13.776-7.603H0.72
	c-0.091,0-0.18,1.946-0.09,1.946C1.657,8.536,2.52,8.666,3.632,8.839v21.418c0,1.901-0.003,4.968-0.093,6.692
	c-0.851,0.175-1.923,0.347-2.822,0.479c-0.091,0.003-0.181,1.948-0.091,1.948h15.255c2.963,0,6.369-0.392,8.391-1.182
	c4.347-1.696,6.446-3.791,6.446-8.072C30.718,24.604,25.573,22.744,19.958,22.148z M15.043,37.157h-2.234V8.634
	c-0.127,0,1.849,0,1.87,0.002c3.808,0.011,5.073,1.473,5.073,6.357c0,3.227-1.123,4.41-2.509,5.195
	c-0.801,0.453-1.638,0.866-3.062,1.129c-0.052,0-0.129,1.619,0,1.619c4.892,0.909,6.707,2.543,6.707,7.362
	C20.888,35.258,19.105,37.157,15.043,37.157z"/>
<path fill="#201748" d="M44.576,15.005c-6.44,0-12.148,4.72-12.148,13.196c0,6.75,3.77,11.747,12.085,11.747
	c7.408,0,9.874-4.561,10.512-5.931c0.167-0.33,0.204-2.005-0.005-1.837c-1.287,0.997-3.524,2.312-6.434,2.312
	c-4.018,0-7.314-1.958-7.51-8.249h14.036C55.784,19.351,52.355,15.005,44.576,15.005z M44.487,16.945c1.685,0,2.3,1.558,2.306,6.678
	l-5.701,0.556C41.278,18.752,42.538,16.945,44.487,16.945z"/>
<path fill="#201748" d="M75.019,15.32c-0.524-0.272-1.056-0.439-2.062-0.439c-2.654,0-5.049,2.833-6.193,6.074h-0.179l0.129-5.772
	c0-0.089-0.268-0.351-0.397-0.306c-3.866,0.785-5.601,1.088-10.413,2.002c-0.131,0.043-0.088,1.683-0.043,1.683
	c0.993,0.218,1.387,0.345,2.175,0.615c0.044,1.951,0.13,3.119,0.13,5.024v7.578c0,1.85-0.042,3.982-0.086,5.393
	c-0.777,0.132-1.104,0.177-2.089,0.352c-0.13,0-0.22,1.856-0.046,1.856h13.452c0.046,0,0.176-1.856,0.046-1.856
	c-0.825-0.133-1.734-0.257-2.595-0.386V23.018c1.298-0.863,2.813-1.435,4.743-1.435c1.25,0,2.249,0.472,2.661,0.742h0.554
	C74.976,22.325,75.194,15.409,75.019,15.32z"/>
<path fill="#201748" d="M88.146,37.521c-0.829-0.132-0.953-0.178-1.814-0.309V11.672c0-2.953,0.13-5.139,0.13-6.782
	c0-0.174-0.27-0.352-0.399-0.31c-1.826,0.407-6.668,1.259-10.666,2.006c-0.13,0.042-0.087,1.683-0.043,1.683
	c0.977,0.214,1.396,0.351,2.169,0.617c0.044,1.949,0.13,3.117,0.13,5.026v17.868c0,1.858-0.042,3.976-0.086,5.392
	c-0.774,0.131-1.115,0.181-2.083,0.352c-0.13,0-0.218,1.856-0.046,1.856h12.661C88.146,39.378,88.276,37.521,88.146,37.521z"/>
<path fill="#201748" d="M101.839,37.521c-0.819-0.132-0.792-0.178-1.647-0.309v-15.25c0-2.953,0.128-5.135,0.128-6.781
	c0-0.172-0.269-0.351-0.397-0.306c-1.827,0.403-6.673,1.256-10.669,2.002c-0.132,0.042-0.088,1.68-0.044,1.68
	c0.992,0.221,1.388,0.346,2.174,0.618c0.043,1.949,0.13,3.119,0.13,5.024v7.578c0,1.85-0.042,3.979-0.087,5.392
	c-0.775,0.131-0.617,0.177-1.6,0.352c-0.131,0-0.219,1.856-0.046,1.856h12.013C101.839,39.378,101.971,37.521,101.839,37.521z"/>
<path fill="#201748" d="M95.828,13.555c2.597,0,4.676-1.812,4.676-4.35c0-2.577-2.079-4.347-4.676-4.347s-4.673,1.77-4.673,4.347
	C91.155,11.743,93.231,13.555,95.828,13.555z"/>
<path fill="#201748" d="M130.671,37.521c-0.823-0.174-1.27-0.261-2.132-0.393V22.307c0-5.88-2.499-7.3-6.752-7.3
	c-3.426,0-6.331,1.826-7.981,4.061h-0.176l0.088-3.886c0-0.089-0.27-0.351-0.399-0.306c-3.856,0.778-5.609,1.088-10.413,2.002
	c-0.13,0.042-0.087,1.681-0.044,1.681c0.994,0.22,1.388,0.345,2.176,0.617c0.052,1.924,0.131,3.119,0.131,5.024v7.58
	c0,1.845-0.043,3.982-0.086,5.39c-0.777,0.131-0.618,0.177-1.602,0.352c-0.131,0-0.219,1.856-0.046,1.856h12.503
	c0.05,0,0.178-1.856,0.045-1.856c-0.82-0.132-1.275-0.178-2.132-0.309V20.965c0.81-0.6,1.735-1.193,3.395-1.193
	c1.778,0,2.611,0.875,2.611,3.218v8.791c0,1.845,0,3.392-0.086,5.39c-0.775,0.131-1.053,0.177-2.046,0.352
	c-0.13,0.04-0.218,1.856-0.089,1.856h12.95C130.671,39.378,130.846,37.562,130.671,37.521z"/>
<path fill="#201748" d="M155.481,15.208l-6.156,2.143h-0.106c-2.027-1.574-4.663-2.348-7.19-2.348c-4.967,0-10.69,2.719-10.69,8.774
	c0,4.232,2.786,6.918,6.151,8.154v0.177c-1.771,0.667-3.288,2.115-3.288,4.71c0,3.341,2.209,4.742,5.803,4.926
	c2.934,0.136,5.625,0.181,7.387,0.271c2.7,0.136,3.057,0.607,3.057,2.022c0,2.181-3.606,3.798-9.012,3.798
	c-4.621,0-6.587-1.088-6.587-3.168c0-1.384,0.502-1.985,0.917-2.649c0.214-0.34-4.666-0.793-4.895-0.528
	c-0.549,0.66-1.231,1.52-1.231,3.137c0,3.304,3.748,5.112,11.835,5.112c9.458,0,14.063-4.166,14.063-8.867
	c0-4.649-2.868-5.69-6.406-5.87c-1.85-0.091-4.147-0.181-7.313-0.316c-2.101-0.092-2.759-0.545-2.759-1.553
	c0-0.27,0.047-0.498,0.151-0.701c0.924,0.199,1.863,0.299,2.775,0.299c4.944,0,10.646-2.728,10.646-8.783
	c0-1.738-0.47-3.292-1.242-4.552l4.092,1.117C155.67,20.554,155.67,15.161,155.481,15.208z M141.986,30.421
	c-1.849,0-2.607-1.656-2.607-6.645c0-4.73,0.759-6.506,2.607-6.506c1.847,0,2.647,1.688,2.647,6.675
	C144.672,28.553,143.833,30.421,141.986,30.421z"/>
<path fill="#201748" d="M168.048,23.651c-3.069-1.398-4.742-1.939-4.742-3.979c0-1.762,1.823-2.719,3.541-2.719
	c2.834,0,4.376,2.216,5.646,4.701h0.977c0.172,0,0.3-5.411,0-5.584c-1.276-0.665-3.604-1.064-6.289-1.064
	c-5.264,0-10.359,2.785-10.359,8.392c0,4.437,2.922,6.449,5.627,7.625c4.282,1.863,5.468,2.722,5.468,4.544
	c0,1.73-1.129,2.471-3.297,2.471c-3.932,0-5.684-4.374-6.412-5.631h-1.021c-0.172,0-0.307,5.833,0,6.007
	c1.968,0.96,4.521,1.535,7.561,1.535c6.403,0,10.173-3.364,10.173-8.41C174.92,27.688,172.493,25.675,168.048,23.651z"/>
<path fill="#201748" d="M188.664,37.521c-0.829-0.132-1.526-0.178-2.384-0.309V11.672c0-2.953,0.128-5.139,0.128-6.782
	c0-0.174-0.272-0.352-0.4-0.31c-1.823,0.407-6.667,1.259-10.665,2.006c-0.132,0.043-0.088,1.683-0.043,1.683
	c0.973,0.214,1.389,0.351,2.17,0.617c0.045,1.949,0.132,3.119,0.132,5.026v17.868c0,1.858-0.044,3.976-0.087,5.392
	c-0.779,0.131-1.092,0.177-2.083,0.352c-0.132,0-0.221,1.856-0.049,1.856h13.234C188.664,39.378,188.796,37.521,188.664,37.521z"/>
<path fill="#201748" d="M200.569,35.54c-1.977-2.928-3.983-5.846-7.182-12.104v-0.124c2.249-2.424,3.771-3.517,7.77-6.878v-0.906
	c-1.257-0.087-5.056-0.122-6.352,0.004c-1.983,3.648-3.075,5.413-7.681,11.946v0.774c0.898,2.486,1.567,3.776,2.981,6.313
	c1.261,2.255,1.977,3.307,3.013,4.512c2.691,0.215,7.091,0.301,9.752,0.301c0.089,0,0.179-1.853,0.13-1.854
	C202.074,37.305,201.549,37.005,200.569,35.54z"/>
<path fill="#201748" d="M224.324,32.181c-1.287,0.997-3.523,2.312-6.433,2.312c-4.017,0-7.317-1.958-7.515-8.249h14.041
	c0.669-6.894-2.759-11.239-10.537-11.239c-6.444,0-12.15,4.72-12.15,13.196c0,6.75,3.77,11.747,12.089,11.747
	c7.407,0,9.872-4.561,10.511-5.931C224.496,33.688,224.534,32.013,224.324,32.181z M213.79,16.945c1.687,0,2.304,1.558,2.31,6.678
	l-5.703,0.556C210.581,18.752,211.838,16.945,213.79,16.945z"/>
<path fill="#201748" d="M273.029,11.254c0.062-0.048,0.118-0.093,0.176-0.132l-0.434-0.655c-0.085,0.057-0.162,0.118-0.236,0.178
	c-0.245,0.201-0.454,0.434-0.622,0.693c-0.452-1.148-1.402-2.059-2.643-2.438c-0.626-0.231-1.345-0.152-1.91,0.297
	c-0.571,0.453-0.814,1.161-0.716,1.833c0.639,0.248,1.379,0.163,1.944-0.287c0.341-0.269,0.562-0.628,0.666-1.016
	c1.267,0.479,2.11,1.66,2.153,3.021c-0.345-0.562-0.951-0.942-1.658-0.947c-0.737-0.006-1.364,0.394-1.712,0.979
	c0.339,0.59,0.968,0.991,1.696,0.997c0.706,0.006,1.327-0.372,1.678-0.932v0.013h0.002c-0.077,1.375,0.771,2.647,2.071,3.099
	c0.086,0.03,0.168,0.066,0.254,0.101c-0.65,0.061-1.259,0.424-1.579,1.051c-0.337,0.652-0.267,1.395,0.102,1.965
	c0.68-0.035,1.324-0.416,1.653-1.062c0.325-0.628,0.267-1.348-0.071-1.912c1.803,0.793,2.975,2.605,2.953,4.585
	c-0.243-0.365-0.578-0.672-0.987-0.879c-0.623-0.315-1.329-0.369-1.993-0.152c-0.66,0.217-1.198,0.679-1.514,1.3
	c-0.368,0.733-0.372,1.602-0.007,2.338c0.047,0.096,0.099,0.189,0.159,0.279c0.422,0.595,1.116,0.877,1.791,0.816
	c0.28-0.621,0.246-1.36-0.178-1.956c-0.295-0.423-0.728-0.683-1.191-0.78c0.03-0.118,0.07-0.233,0.129-0.344
	c0.217-0.434,0.596-0.755,1.056-0.907c0.465-0.151,0.959-0.113,1.392,0.106c0.744,0.374,1.217,1.419,0.965,2.036
	c-0.047,0.114-0.099,0.228-0.154,0.339l-1.983,3.923l0.703,0.354l1.985-3.921c0.073-0.149,0.14-0.302,0.202-0.456
	c0.132,0.641,0.574,1.204,1.229,1.451c0.682,0.254,1.416,0.102,1.941-0.327c-0.114-0.674-0.563-1.267-1.247-1.523
	c-0.658-0.248-1.355-0.113-1.877,0.28c0.203-0.535,0.322-1.093,0.358-1.667c0.161-2.561-1.415-4.938-3.832-5.782l0,0
	c-0.975-0.339-1.61-1.298-1.546-2.331c0.021-0.315,0.105-0.619,0.249-0.903C272.588,11.7,272.788,11.456,273.029,11.254z
	 M267.876,26.971v0.786c1.914,0,3.472-1.554,3.472-3.468c0-1.315-0.729-2.502-1.899-3.098l-0.358,0.7
	c0.909,0.462,1.471,1.381,1.471,2.398C270.561,25.767,269.356,26.971,267.876,26.971z M270.752,20.651V15.12h-0.394
	c-0.796,0-1.22-0.337-1.671-0.694c-0.59-0.469-1.263-1-2.604-0.488l0.279,0.735c0.925-0.353,1.286-0.066,1.837,0.369
	c0.424,0.334,0.936,0.741,1.766,0.841v4.769H270.752z M265.342,32.925h-0.786c0,0.734-0.31,1.441-0.868,1.988l0.546,0.565
	C264.949,34.781,265.342,33.874,265.342,32.925z M261.109,34.913c-0.56-0.544-0.866-1.25-0.866-1.988h-0.786
	c0,0.953,0.394,1.856,1.105,2.554L261.109,34.913z M258.432,14.673l0.282-0.735c-1.345-0.512-2.016,0.02-2.607,0.488
	c-0.451,0.356-0.876,0.694-1.671,0.694h-0.394v5.532h0.786v-4.769c0.829-0.1,1.343-0.505,1.767-0.841
	C257.144,14.607,257.507,14.32,258.432,14.673z M255.703,21.89l-0.355-0.7c-1.174,0.597-1.901,1.784-1.901,3.098
	c0,1.915,1.56,3.468,3.474,3.468v-0.786c-1.479,0-2.688-1.204-2.688-2.684C254.232,23.271,254.795,22.353,255.703,21.89z
	 M254.696,32.44c0.356,0.138,0.723,0.281,1.125,0.387c0.506,0.132,0.945,0.188,1.333,0.188c1.357,0,2.026-0.707,2.354-1.387
	c0.123-0.252,0.182-0.53,0.179-0.807c0.378-0.329,0.66-0.736,0.817-1.194c0.396-1.164,0.095-1.849,0.061-1.923l-0.712,0.332
	c0.009,0.021,0.195,0.479-0.095,1.337c-0.071,0.211-0.182,0.408-0.327,0.585c-0.174-0.272-0.438-0.484-0.748-0.598
	c-0.372-0.138-0.774-0.123-1.125,0.043c-0.335,0.156-0.596,0.445-0.719,0.792c-0.113,0.324-0.095,0.669,0.053,0.973l0.707-0.347
	c-0.071-0.142-0.047-0.279-0.016-0.364c0.052-0.15,0.166-0.277,0.307-0.345c0.163-0.074,0.348-0.079,0.52-0.015
	c0.188,0.067,0.34,0.209,0.417,0.383c0.046,0.102,0.071,0.203,0.077,0.304v0.003c0.009,0.172-0.027,0.344-0.101,0.498l-0.038,0.073
	c-0.448,0.749-1.179,1.035-1.962,0.603c-0.821-0.452-1.198-1.469-0.759-2.65l-0.003,0.003c0.125-0.338,0.129-0.654-0.047-0.912
	c-0.12-0.179-0.368-0.387-0.872-0.387c-0.618,0-1.468,0.326-2.27,0.872c-1.631,1.108-1.979,2.195-1.609,2.739
	c0.119,0.174,0.364,0.384,0.865,0.384c0.105,0,0.219-0.013,0.336-0.031v0.004C253.367,31.881,253.98,32.157,254.696,32.44z
	 M252.109,31.224c-0.165,0-0.215-0.04-0.215-0.04c-0.076-0.15,0.32-0.911,1.397-1.646c0.66-0.448,1.38-0.737,1.831-0.737
	c0.154,0,0.215,0.034,0.221,0.039c0.059,0.13-0.254,0.871-1.4,1.649C253.283,30.935,252.565,31.228,252.109,31.224z M250.559,24.367
	c0.676,0.061,1.37-0.222,1.791-0.817c0.071-0.1,0.126-0.205,0.175-0.312c0.02-0.039,0.034-0.077,0.05-0.115
	c0.006-0.017,0.015-0.032,0.021-0.049c0.264-0.686,0.233-1.459-0.102-2.122c-0.316-0.621-0.854-1.083-1.518-1.3
	c-0.66-0.218-1.37-0.163-1.987,0.152c-0.411,0.207-0.746,0.514-0.989,0.88c-0.021-1.983,1.152-3.798,2.959-4.59
	c-0.342,0.566-0.4,1.289-0.075,1.919c0.329,0.646,0.975,1.027,1.653,1.062c0.368-0.571,0.439-1.314,0.102-1.966
	c-0.323-0.63-0.932-0.994-1.588-1.052c0.086-0.036,0.172-0.072,0.261-0.103c1.299-0.452,2.146-1.724,2.07-3.099l0,0V12.84
	c0.35,0.562,0.973,0.942,1.68,0.936c0.728-0.006,1.357-0.407,1.695-0.997c-0.347-0.585-0.973-0.985-1.71-0.979
	c-0.707,0.004-1.315,0.387-1.66,0.95c0.056-1.397,1.208-2.517,2.617-2.517V9.447c-1.356,0-2.533,0.8-3.08,1.954
	c-0.178-0.285-0.399-0.54-0.666-0.759c-0.071-0.058-0.148-0.119-0.234-0.175l-0.433,0.655c0.059,0.039,0.114,0.084,0.172,0.129
	c0.246,0.204,0.445,0.448,0.587,0.728l0,0c0.145,0.284,0.227,0.588,0.246,0.903c0.066,1.033-0.568,1.991-1.542,2.331
	c-2.417,0.844-3.993,3.221-3.834,5.782c0.038,0.588,0.163,1.159,0.372,1.704c-0.522-0.404-1.231-0.546-1.897-0.295
	c-0.686,0.256-1.131,0.849-1.245,1.523c0.525,0.428,1.256,0.581,1.938,0.327c0.666-0.25,1.109-0.824,1.235-1.475
	c0.064,0.155,0.132,0.308,0.205,0.458l1.984,3.921l0.703-0.354c0,0-1.784-3.552-2.113-4.218c-0.331-0.665,0.182-1.699,0.939-2.08
	c0.435-0.22,0.929-0.258,1.392-0.106c0.462,0.152,0.839,0.474,1.058,0.907c0.055,0.106,0.092,0.215,0.125,0.328
	c-0.46,0.099-0.887,0.357-1.179,0.777C250.313,23.007,250.279,23.747,250.559,24.367z M267.643,33.015
	c0.387,0,0.83-0.056,1.333-0.188c0.402-0.105,0.771-0.249,1.124-0.387c0.717-0.283,1.33-0.56,2.252-0.458v-0.004
	c0.116,0.019,0.23,0.031,0.335,0.031c0.5,0,0.749-0.21,0.865-0.384c0.369-0.544,0.021-1.631-1.606-2.739
	c-0.805-0.546-1.655-0.872-2.272-0.872c-0.5,0-0.749,0.208-0.872,0.387c-0.176,0.258-0.172,0.574-0.047,0.912l-0.002-0.003
	c0.438,1.182,0.061,2.198-0.759,2.65c-0.783,0.433-1.515,0.146-1.964-0.603l-0.036-0.073c-0.073-0.154-0.107-0.326-0.102-0.498
	l0.004-0.003c0.003-0.101,0.026-0.202,0.073-0.304c0.08-0.174,0.23-0.315,0.418-0.383c0.172-0.064,0.356-0.06,0.519,0.015
	c0.146,0.067,0.255,0.194,0.307,0.345c0.034,0.085,0.056,0.223-0.015,0.364l0.707,0.347c0.146-0.304,0.166-0.648,0.052-0.973
	c-0.123-0.347-0.385-0.636-0.716-0.792c-0.353-0.166-0.755-0.181-1.127-0.043c-0.31,0.113-0.574,0.325-0.75,0.598
	c-0.145-0.177-0.255-0.374-0.325-0.585c-0.292-0.857-0.105-1.315-0.095-1.337l-0.714-0.332c-0.032,0.074-0.334,0.759,0.062,1.923
	c0.156,0.458,0.438,0.865,0.816,1.194c-0.003,0.276,0.056,0.555,0.179,0.807C265.616,32.308,266.285,33.015,267.643,33.015z
	 M269.673,28.801c0.451,0,1.17,0.289,1.831,0.737c1.078,0.734,1.474,1.495,1.396,1.646c0,0-0.048,0.04-0.214,0.04
	c-0.455,0.004-1.174-0.289-1.834-0.734c-1.146-0.778-1.46-1.52-1.401-1.649C269.457,28.835,269.52,28.801,269.673,28.801z
	 M262.396,30.652c0.362,0.482,0.575,1.19,0.575,1.943h0.785c0-1.155-0.411-2.207-1.1-2.814l-0.258-0.231l-0.261,0.231
	c-0.691,0.607-1.103,1.659-1.103,2.814h0.786C261.822,31.843,262.038,31.135,262.396,30.652z M280.208,30.115
	c-0.783,0-1.56,0.12-2.31,0.353l0.233,0.749c0.673-0.209,1.373-0.316,2.076-0.316c0.771,0,1.524,0.127,2.233,0.368l0.254-0.742
	C281.904,30.253,281.065,30.115,280.208,30.115z M282.736,24.772l-3.522,1.191c-0.148,0.048-0.292,0.132-0.419,0.242
	c-0.35,0.317-0.473,0.792-0.355,1.219c-0.744,0.59-1.32,1.376-1.655,2.275c-0.166,0.452-0.271,0.928-0.308,1.413l0.39,0.03
	l-0.39-0.027c-0.03,0.408-0.12,0.812-0.261,1.2c-0.639,1.728-2.301,2.885-4.142,2.889c0.02-0.15,0.028-0.305,0.028-0.458
	c0-0.049,0-0.099-0.003-0.147c1.579-0.016,3.004-1.011,3.551-2.492c0.157-0.43,0.232-0.875,0.232-1.323
	c0-2.104-1.71-3.813-3.814-3.813v0.786c1.671,0,3.029,1.357,3.029,3.027c0,0.356-0.062,0.71-0.188,1.054
	c-0.437,1.179-1.576,1.976-2.842,1.976h-0.08c-0.079-0.319-0.202-0.631-0.361-0.919l-1.423,0.79
	c0.178,0.322,0.271,0.688,0.271,1.062c0,0.786-0.421,1.523-1.1,1.919l0.824,1.408c0.312-0.185,0.592-0.413,0.838-0.667h1.031
	c1.905,0,3.718-0.821,4.976-2.255c0.796-0.93,1.948-1.468,3.164-1.468c0.765,0,1.509,0.209,2.156,0.604l0.409-0.669
	c-0.769-0.475-1.656-0.724-2.565-0.724c-1.446,0-2.815,0.638-3.756,1.743c-1.109,1.259-2.707,1.98-4.384,1.98h-0.454
	c0.113-0.202,0.206-0.411,0.282-0.63h0.172c2.169,0,4.131-1.365,4.888-3.399c0.165-0.458,0.267-0.935,0.304-1.417
	c0.031-0.413,0.12-0.815,0.262-1.203c0.275-0.746,0.755-1.399,1.366-1.898c0.448,0.333,1.084,0.313,1.514-0.072l2.771-2.479
	c0.129-0.116,0.184-0.298,0.125-0.471C283.218,24.818,282.969,24.694,282.736,24.772z M258.44,3.684l0.774-0.128l-0.034-0.21
	c-0.009-0.056-0.024-0.132-0.028-0.184c0.05-0.017,0.127-0.035,0.183-0.046c0.193-0.046,0.415-0.096,0.583-0.265
	c0.169-0.169,0.224-0.403,0.267-0.591c0.01-0.052,0.028-0.124,0.043-0.173c0.054,0.003,0.127,0.016,0.179,0.025
	c0.19,0.032,0.428,0.071,0.653-0.022c0.216-0.092,0.345-0.275,0.462-0.437c0.033-0.046,0.076-0.109,0.11-0.149
	c0.046,0.023,0.107,0.062,0.15,0.09c0.166,0.103,0.372,0.232,0.614,0.232c0.239,0,0.445-0.128,0.611-0.23
	c0.043-0.029,0.107-0.067,0.15-0.091c0.037,0.04,0.08,0.103,0.114,0.149c0.116,0.162,0.245,0.345,0.467,0.439
	c0.221,0.09,0.458,0.051,0.647,0.02c0.053-0.009,0.126-0.021,0.179-0.025c0.015,0.049,0.03,0.123,0.043,0.177
	c0.043,0.187,0.099,0.419,0.267,0.588c0.169,0.168,0.399,0.222,0.587,0.265c0.052,0.012,0.126,0.029,0.176,0.045
	c-0.004,0.051-0.017,0.124-0.025,0.177c-0.03,0.191-0.071,0.429,0.021,0.65c0.093,0.218,0.277,0.349,0.438,0.465
	c0.047,0.032,0.108,0.077,0.148,0.111c-0.021,0.045-0.062,0.105-0.089,0.15c-0.104,0.165-0.233,0.37-0.233,0.615
	c0,0.244,0.129,0.449,0.233,0.613c0.027,0.046,0.067,0.106,0.089,0.151c-0.04,0.034-0.102,0.078-0.145,0.11
	c-0.165,0.117-0.35,0.249-0.442,0.467c-0.093,0.222-0.052,0.458-0.018,0.648c0.009,0.054,0.021,0.126,0.023,0.178
	c-0.049,0.016-0.122,0.033-0.174,0.045c-0.191,0.043-0.425,0.097-0.587,0.264c-0.172,0.168-0.228,0.4-0.271,0.586l-0.013,0.059
	l0.765,0.184l0.016-0.064c0.015-0.066,0.036-0.163,0.056-0.204c0.043-0.019,0.142-0.042,0.208-0.058
	c0.225-0.051,0.504-0.115,0.674-0.366c0.161-0.247,0.116-0.529,0.075-0.754c-0.011-0.068-0.026-0.167-0.023-0.214
	c0.03-0.035,0.109-0.09,0.165-0.13c0.188-0.135,0.424-0.302,0.482-0.6c0.056-0.288-0.095-0.527-0.215-0.719
	c-0.037-0.057-0.096-0.15-0.11-0.196c0.015-0.045,0.073-0.139,0.11-0.197c0.12-0.191,0.271-0.431,0.215-0.72
	c-0.059-0.297-0.304-0.472-0.484-0.6c-0.056-0.039-0.133-0.095-0.166-0.128c0-0.047,0.016-0.147,0.026-0.216
	c0.038-0.226,0.086-0.507-0.082-0.759c-0.17-0.244-0.445-0.309-0.669-0.359c-0.064-0.015-0.161-0.037-0.204-0.057
	c-0.021-0.043-0.043-0.14-0.058-0.206c-0.052-0.225-0.116-0.504-0.368-0.673c-0.247-0.161-0.525-0.115-0.753-0.077
	c-0.068,0.011-0.169,0.028-0.209,0.028h-0.003c-0.033-0.031-0.093-0.112-0.132-0.167c-0.133-0.189-0.301-0.423-0.596-0.485
	c-0.29-0.056-0.531,0.095-0.725,0.216c-0.062,0.038-0.15,0.093-0.194,0.108c-0.046-0.015-0.139-0.073-0.193-0.109
	c-0.193-0.12-0.434-0.271-0.729-0.214c-0.291,0.061-0.46,0.295-0.596,0.484c-0.039,0.056-0.101,0.142-0.122,0.166
	c-0.046,0.003-0.151-0.014-0.222-0.025c-0.224-0.038-0.504-0.084-0.759,0.081c-0.246,0.167-0.307,0.444-0.359,0.668
	c-0.016,0.069-0.039,0.173-0.052,0.205c-0.043,0.02-0.142,0.043-0.209,0.058c-0.228,0.052-0.507,0.118-0.673,0.368
	c-0.166,0.246-0.116,0.529-0.08,0.757L258.44,3.684z M270.221,39.072l-4.084-0.75c-0.138-0.024-0.284-0.028-0.43,0
	c-0.441,0.079-0.783,0.393-0.918,0.789h-0.107c-0.538,0-1.035-0.119-1.502-0.316c0.633-0.451,1.207-0.985,1.751-1.489
	c1.483-1.382,2.765-2.573,4.563-1.794l0.312-0.722c-2.271-0.982-3.867,0.501-5.413,1.938c-0.049,0.045-0.099,0.092-0.146,0.138
	c-0.989-0.74-1.453-2.102-1.453-4.271h-0.787c0,3.055-0.977,3.933-1.452,4.274c-0.049-0.047-0.101-0.093-0.15-0.142
	c-1.546-1.438-3.142-2.921-5.412-1.938l0.31,0.722c1.8-0.779,3.081,0.412,4.565,1.794c0.544,0.504,1.118,1.038,1.75,1.489
	c-0.467,0.197-0.965,0.316-1.505,0.316h-0.102c-0.19-0.553-0.759-0.897-1.348-0.789l-4.082,0.75
	c-0.172,0.034-0.32,0.168-0.354,0.353c-0.043,0.24,0.118,0.471,0.356,0.514l4.08,0.742c0.138,0.025,0.285,0.025,0.433,0
	c0.439-0.079,0.773-0.39,0.911-0.783h0.105c0.852,0,1.604-0.242,2.285-0.61c0.685,0.368,1.438,0.61,2.285,0.61h0.111
	c0.189,0.547,0.755,0.891,1.344,0.783l4.08-0.742c0.176-0.034,0.319-0.17,0.353-0.354C270.616,39.345,270.457,39.115,270.221,39.072
	z M277.569,32.08l0.329,0.716c0.725-0.334,1.502-0.504,2.31-0.504c0.756,0,1.483,0.148,2.165,0.439l0.308-0.726
	c-0.78-0.331-1.612-0.501-2.473-0.501C279.287,31.505,278.399,31.699,277.569,32.08z M282.638,14.798l-0.166-0.276l-1.062,0.539
	c-0.725-1.35-1.539-2.463-2.614-3.573c0.338-0.484,0.673-0.968,1.008-1.453l0.362-0.529l-0.635-0.084
	c-1.27-0.168-2.037-1.106-2.852-2.1c-0.762-0.933-1.548-1.893-2.785-2.26V3.464l-0.283-0.083c-1.827-0.544-3.805-0.544-5.633,0
	l-0.282,0.083v4.305l0.506-0.153c0.771-0.231,1.579-0.357,2.381-0.373v1.244l0.639,0.084c1.271,0.167,2.043,1.105,2.854,2.099
	c0.378,0.461,0.762,0.93,1.204,1.328l-0.98,0.942l0.379,0.354c1.763,1.66,2.748,3.07,3.766,5.393l0.178,0.404l1.061-0.623
	c0.174,0.615,0.236,1.272,0.221,2.173l-0.01,0.522l0.505-0.133c1.123-0.301,2.241-0.6,3.363-0.898l0.284-0.076l0.007-0.297
	C284.085,17.893,283.717,16.594,282.638,14.798z M270.795,6.451c-0.781,0-1.559,0.093-2.313,0.277V4.056
	c1.507-0.396,3.117-0.396,4.625,0v2.672c-0.099-0.023-0.199-0.047-0.297-0.068c-0.142-0.029-0.283-0.056-0.428-0.079
	c-0.145-0.024-0.288-0.045-0.433-0.062C271.564,6.473,271.182,6.451,270.795,6.451z M274.686,10.173
	c-0.66-0.803-1.336-1.629-2.306-2.076l1.514-0.328V5.894c0.891,0.352,1.521,1.122,2.177,1.926c0.757,0.923,1.537,1.874,2.752,2.249
	c-0.195,0.285-1.501,2.167-1.501,2.167c-0.129-0.027-0.252-0.063-0.372-0.105c-0.144-0.052-0.282-0.115-0.415-0.188
	c-0.224-0.123-0.433-0.272-0.63-0.44C275.466,11.127,275.082,10.658,274.686,10.173z M279.747,17.52l-0.34,0.201l-0.428,0.25
	c-0.927-2.034-1.867-3.391-3.388-4.885h2.098l0.651-0.937c0.946,0.996,1.677,1.997,2.329,3.199c0.049,0.085,0.092,0.169,0.138,0.258
	c0.061,0.115,0.12,0.231,0.178,0.351c0.104,0.212,0.209,0.431,0.311,0.656l-1.207,0.709L279.747,17.52z M280.688,20.139
	c-0.012-0.822-0.11-1.462-0.308-2.077l1.92-1.126l0.037-1.072c0.666,1.249,0.922,2.252,0.931,3.588
	C282.407,19.681,281.547,19.909,280.688,20.139z M242.116,32.006l0.306,0.726c0.683-0.291,1.41-0.439,2.166-0.439
	c0.806,0,1.584,0.17,2.311,0.504l0.327-0.716c-0.828-0.381-1.716-0.575-2.638-0.575C243.729,31.505,242.895,31.675,242.116,32.006z
	 M256.705,10.003c0,0.475,0.188,0.922,0.522,1.256c0.15,0.159,0.338,0.267,0.516,0.363c0.145,0.079,0.169,0.104,0.169,0.279v0.648
	c0,0.391,0.215,0.615,0.59,0.615h0.79c0.125,0.237,0.291,0.465,0.506,0.676c0.025,0.023,0.053,0.047,0.081,0.069
	c0.217,0.196,0.472,0.365,0.748,0.499c-0.129,0.412-0.516,0.712-0.97,0.712l-0.723,0.002c-0.353-0.002-0.705,0.13-0.974,0.397
	c-0.344,0.345-0.46,0.828-0.359,1.27h-1.256v3.594l0.114,0.114c0.288,0.292,0.447,0.675,0.447,1.082c0,0.408-0.159,0.791-0.447,1.08
	l-0.114,0.116v2.417c0,0.934,0.759,1.696,1.692,1.696h2.985l1.376,1.376l1.37-1.376h2.985c0.935,0,1.696-0.762,1.696-1.696v-2.417
	l-0.117-0.116c-0.289-0.289-0.448-0.672-0.448-1.08c0-0.407,0.159-0.791,0.451-1.082l0.114-0.114v-3.594h-1.257
	c0.102-0.441-0.019-0.925-0.362-1.271c-0.265-0.266-0.614-0.398-0.964-0.397l-0.731-0.001c-0.455,0-0.839-0.301-0.972-0.713
	c0.279-0.136,0.533-0.303,0.746-0.498c0.028-0.024,0.056-0.047,0.087-0.078c0.485-0.475,0.74-1.037,0.74-1.628
	c0-0.921-0.623-1.765-1.64-2.234V6.854h-0.787v0.583c-0.061-0.01-0.132-0.022-0.209-0.036c-0.27-0.053-0.639-0.125-1-0.197
	c-0.004,0-0.004,0-0.007-0.001v-0.31c0.553,0.017,0.813-0.18,1.091-0.615l1.193-2.157c0.12-0.188,0.071-0.439-0.097-0.579
	c-0.206-0.149-0.467-0.114-0.615,0.077c0,0-0.113,0.15-0.288,0.371c-0.176,0.212-0.406,0.499-0.646,0.789
	c-0.219,0.259-0.437,0.524-0.627,0.726V5.253c0.01-0.057,0-0.114,0-0.172c0-0.338-0.125-0.645-0.334-0.88
	c0.03-0.02,0.061-0.04,0.089-0.066V4.131c0.107-0.094,0.172-0.238,0.172-0.393c0-0.287-0.233-0.524-0.517-0.524
	c-0.295,0-0.524,0.237-0.524,0.524h-0.91c-0.15,0-0.328,0.12-0.396,0.258l-0.107,0.232c-0.056,0.14-0.224,0.257-0.359,0.257
	c-0.138,0-0.249,0-0.249,0h-0.608v0.68c0,0.152,0.114,0.321,0.256,0.375l1.185,0.455c0.028,0.029,0.059,0.055,0.09,0.082
	l-2.666,2.666C256.893,9.079,256.705,9.527,256.705,10.003z M258.518,16.075c0.222-0.22,0.574-0.224,0.802-0.013l0.586,0.727h-1.465
	C258.299,16.567,258.326,16.269,258.518,16.075z M263.413,25.361h-0.786v-1.039l0.786-0.958V25.361z M265.188,25.361h-0.787v-3.2
	l0.787-0.956V25.361z M265.057,20.129l-0.655,0.792l-1.185,1.442l-0.59,0.718l-1.804,2.196h-2.355l5.919-6.957h2.152L265.057,20.129
	z M265.475,16.063c0.228-0.212,0.583-0.208,0.802,0.011c0.193,0.195,0.22,0.493,0.08,0.715h-1.469L265.475,16.063z M264.648,15.836
	l-1.987,2.463h-0.528l-1.987-2.463c0.574-0.163,1.032-0.6,1.222-1.161c0.037,0.009,0.071,0.019,0.111,0.027l0.033,0.008
	c0.313,0.067,0.602,0.099,0.882,0.099c0.283,0,0.571-0.032,0.89-0.101l0.032-0.007c0.039-0.009,0.076-0.018,0.113-0.027
	C263.619,15.236,264.077,15.675,264.648,15.836z M263.561,10.595l0.095,0.038c0.8,0.33,1.297,0.932,1.297,1.57
	c0,0.473-0.273,0.841-0.495,1.06c-0.018,0.015-0.034,0.029-0.049,0.043l-0.018,0.015c-0.292,0.268-0.682,0.469-1.131,0.585
	c-0.041,0.011-0.08,0.021-0.12,0.03l-0.024,0.006c-0.522,0.111-0.925,0.11-1.435,0l-0.03-0.006c-0.04-0.009-0.081-0.018-0.126-0.031
	c-0.443-0.115-0.833-0.318-1.125-0.586l-0.021-0.017c-0.015-0.013-0.03-0.025-0.036-0.031c-0.23-0.227-0.506-0.595-0.506-1.068
	c0-0.638,0.499-1.24,1.301-1.57l0.043-0.021c0.013-0.004,0.024-0.008,0.037-0.013c0.123-0.045,0.258-0.086,0.402-0.121
	c0.027-0.006,0.056-0.012,0.083-0.019c0.024-0.006,0.052-0.013,0.086-0.019c0.433-0.078,0.774-0.079,1.218,0
	c0.026,0.004,0.052,0.011,0.079,0.018c0.026,0.007,0.055,0.014,0.076,0.018C263.315,10.513,263.45,10.553,263.561,10.595z
	 M260.651,8.346h0.634V8.344h2.026v1.359c-0.012-0.002-0.028-0.005-0.039-0.009c-0.043-0.011-0.086-0.021-0.129-0.029
	c-0.535-0.096-0.975-0.094-1.49-0.001c-0.05,0.009-0.095,0.02-0.138,0.031c-0.021,0.004-0.041,0.009-0.068,0.015
	c0,0,0,0.001-0.003,0.001v-0.58h-0.793c-0.312,0-0.568,0.256-0.568,0.571h-0.785C259.298,8.955,259.905,8.346,260.651,8.346z
	 M262.394,10.806c-0.351,0.585-0.985,0.771-1.717,0.771v1.4c0.728,0,1.366,0.136,1.717,0.718c0.35-0.583,0.988-0.718,1.718-0.718
	v-1.4C263.38,11.577,262.743,11.392,262.394,10.806z M262.394,15.649c-0.291,0-0.528,0.237-0.528,0.53
	c0,0.292,0.237,0.529,0.528,0.529c0.292,0,0.531-0.238,0.531-0.529C262.925,15.886,262.686,15.649,262.394,15.649z M255.421,36.666
	c-0.679-0.396-1.099-1.133-1.099-1.919c0-0.374,0.092-0.74,0.27-1.062l-1.422-0.79c-0.16,0.288-0.282,0.6-0.362,0.919h-0.081
	c-1.265,0-2.404-0.797-2.841-1.976c-0.125-0.344-0.187-0.697-0.187-1.054c0-1.67,1.356-3.027,3.027-3.027v-0.786
	c-2.104,0-3.814,1.71-3.814,3.813c0,0.448,0.077,0.894,0.234,1.323c0.546,1.481,1.972,2.477,3.55,2.492
	c-0.002,0.049-0.006,0.099-0.006,0.147c0,0.153,0.013,0.308,0.031,0.458c-1.84-0.004-3.502-1.161-4.141-2.885
	c-0.142-0.392-0.23-0.796-0.261-1.204h-0.004l0.004-0.003c-0.037-0.485-0.142-0.961-0.308-1.415
	c-0.338-0.906-0.927-1.702-1.684-2.294c0.163-0.597-0.157-1.226-0.746-1.441l-3.897-1.418c-0.165-0.06-0.363-0.016-0.485,0.125
	c-0.157,0.185-0.136,0.462,0.045,0.62L244.392,28c0.107,0.089,0.233,0.165,0.372,0.217c0.393,0.142,0.811,0.068,1.12-0.162
	c0.624,0.501,1.109,1.161,1.392,1.916c0.142,0.388,0.23,0.79,0.262,1.203c0.037,0.482,0.138,0.959,0.306,1.417
	c0.753,2.034,2.716,3.399,4.884,3.399h0.176c0.074,0.219,0.166,0.431,0.28,0.63h-0.456c-1.676,0-3.273-0.722-4.376-1.978
	c-0.946-1.108-2.316-1.746-3.763-1.746c-0.908,0-1.797,0.249-2.564,0.724l0.408,0.669c0.648-0.396,1.392-0.604,2.156-0.604
	c1.217,0,2.368,0.538,3.167,1.474c1.256,1.428,3.068,2.249,4.972,2.249h1.032c0.247,0.254,0.526,0.482,0.836,0.667L255.421,36.666z
	 M242.097,30.526l0.256,0.742c1.366-0.465,2.901-0.486,4.312-0.052l0.234-0.749c-0.75-0.232-1.526-0.353-2.311-0.353
	C243.731,30.115,242.893,30.253,242.097,30.526z M244.907,21.166l-0.009-0.522c-0.019-0.901,0.043-1.558,0.218-2.173l1.062,0.623
	l0.179-0.404c1.017-2.323,1.999-3.733,3.763-5.393l0.377-0.354l-0.977-0.942c0.442-0.397,0.823-0.867,1.201-1.328
	c0.813-0.994,1.581-1.933,2.854-2.099l0.64-0.084V7.244c0.804,0.016,1.608,0.142,2.383,0.373l0.503,0.153V3.464l-0.279-0.083
	c-1.83-0.544-3.805-0.544-5.637,0l-0.279,0.083v1.598c-1.237,0.367-2.023,1.327-2.788,2.26c-0.812,0.993-1.582,1.931-2.851,2.1
	l-0.636,0.084l0.365,0.529c0.332,0.484,0.67,0.968,1.004,1.453c-1.073,1.11-1.889,2.223-2.61,3.573l-1.062-0.539l-0.168,0.276
	c-1.075,1.796-1.447,3.095-1.413,4.963l0.005,0.297l0.286,0.076c1.124,0.298,2.242,0.598,3.363,0.898L244.907,21.166z
	 M251.692,4.056c1.508-0.396,3.114-0.396,4.623,0v2.672c-0.757-0.184-1.53-0.277-2.31-0.277c-0.387,0-0.774,0.022-1.155,0.068
	c-0.146,0.017-0.292,0.038-0.437,0.062c-0.144,0.022-0.285,0.049-0.423,0.079c-0.103,0.021-0.2,0.044-0.299,0.068V4.056z
	 M245.977,10.069c1.217-0.375,1.993-1.326,2.748-2.249c0.66-0.804,1.29-1.574,2.181-1.926v1.875l1.512,0.328
	c-0.968,0.447-1.643,1.273-2.304,2.076c-0.396,0.485-0.78,0.955-1.219,1.331c-0.197,0.168-0.406,0.317-0.63,0.44
	c-0.136,0.072-0.273,0.135-0.418,0.188c-0.116,0.042-0.242,0.078-0.371,0.105C247.476,12.237,246.172,10.354,245.977,10.069z
	 M243.811,15.956c0.059-0.12,0.12-0.236,0.181-0.351c0.043-0.088,0.09-0.172,0.136-0.258c0.654-1.202,1.385-2.203,2.331-3.199
	l0.651,0.937h2.099c-1.521,1.495-2.464,2.852-3.392,4.885l-2.315-1.359C243.602,16.387,243.706,16.168,243.811,15.956z
	 M241.531,19.452c0.011-1.336,0.265-2.34,0.929-3.588l0.039,1.072l1.92,1.126c-0.199,0.615-0.295,1.255-0.31,2.077
	C243.249,19.909,242.392,19.681,241.531,19.452z"/>
</svg>
