<svg xmlns="http://www.w3.org/2000/svg"  viewBox="0 0 388.347 127.56">
	<rect fill="#CD0403" width="388.347" height="127.56"/>

		<path fill="#FFFFFF" d="M26.318,102.469V25.09h91.958c43.399,0,48.334,2.019,48.334,16.821c0,12.896-5.383,16.934-34.877,16.934
			h-7.401v5.384h7.401c31.064,0,36.11,4.261,36.11,17.494c0,18.391-9.084,20.746-50.801,20.746H26.318z M76.67,56.154h25.793
			c10.99,0,12.336-2.131,12.336-10.093c0-6.392-2.131-8.074-12.336-8.074H76.67V56.154z M76.67,89.236h25.793
			c12,0,14.019-2.468,14.019-10.766c0-7.625-1.57-10.429-14.243-10.429H76.67V89.236z M221,102.469v-61.23h-44.746V25.09h142.757
			v16.148h-44.855v61.23H221z"/>
</svg>
