
<svg  xmlns="http://www.w3.org/2000/svg" xmlns:xlink="http://www.w3.org/1999/xlink" 
	 width="300px" height="40px" >
<g>
	<g>
		<path d="M49.273,7.092v2.389c0,0.091-0.026,0.173-0.078,0.25c-0.051,0.077-0.122,0.122-0.211,0.135l-2.005,0.308
			c-0.128,0.387-0.263,0.714-0.404,0.983c0.243,0.347,0.622,0.841,1.136,1.484c0.077,0.077,0.115,0.161,0.115,0.251
			c0,0.089-0.032,0.173-0.095,0.25c-0.193,0.27-0.547,0.662-1.061,1.175c-0.514,0.515-0.854,0.765-1.021,0.752
			c-0.089,0-0.179-0.032-0.27-0.096l-1.484-1.156c-0.321,0.167-0.648,0.302-0.982,0.404c-0.116,0.976-0.218,1.644-0.309,2.004
			c-0.051,0.205-0.179,0.309-0.385,0.309h-2.39c-0.103,0-0.192-0.033-0.27-0.097c-0.078-0.065-0.115-0.142-0.115-0.231l-0.309-1.985
			c-0.347-0.115-0.667-0.25-0.963-0.404l-1.523,1.156c-0.076,0.064-0.167,0.096-0.27,0.096c-0.103,0-0.192-0.038-0.27-0.116
			c-0.899-0.821-1.491-1.425-1.772-1.811c-0.051-0.065-0.077-0.141-0.077-0.231c0-0.09,0.032-0.173,0.096-0.25
			c0.103-0.154,0.283-0.392,0.54-0.713c0.256-0.321,0.449-0.578,0.578-0.771c-0.193-0.359-0.341-0.713-0.443-1.06l-1.966-0.29
			c-0.09-0.012-0.161-0.058-0.211-0.135c-0.052-0.076-0.084-0.161-0.096-0.25v-2.39c0-0.089,0.032-0.173,0.096-0.25
			c0.064-0.078,0.128-0.123,0.193-0.135l2.004-0.309c0.103-0.321,0.244-0.649,0.424-0.983c-0.296-0.411-0.681-0.906-1.156-1.483
			c-0.078-0.09-0.116-0.174-0.116-0.251s0.032-0.161,0.096-0.25c0.193-0.257,0.546-0.642,1.061-1.156
			c0.513-0.514,0.853-0.771,1.02-0.771c0.09,0,0.187,0.032,0.29,0.096l1.483,1.157c0.308-0.168,0.63-0.302,0.963-0.406
			c0.116-0.977,0.226-1.645,0.329-2.004C39.483,0.104,39.612,0,39.831,0h2.39c0.089,0,0.173,0.032,0.25,0.096
			c0.078,0.065,0.122,0.142,0.135,0.231l0.29,1.985c0.359,0.116,0.681,0.245,0.963,0.385L45.4,1.561
			c0.064-0.064,0.144-0.096,0.24-0.096c0.097,0,0.189,0.032,0.279,0.096c0.925,0.861,1.516,1.471,1.773,1.831
			c0.052,0.064,0.077,0.142,0.077,0.231c0,0.089-0.025,0.173-0.077,0.25c-0.115,0.154-0.301,0.392-0.558,0.712
			c-0.258,0.322-0.45,0.579-0.579,0.771c0.18,0.36,0.328,0.707,0.444,1.042l1.965,0.308c0.09,0.013,0.167,0.057,0.231,0.135
			C49.26,6.918,49.286,7.002,49.273,7.092z M43.762,8.267c0-0.758-0.264-1.406-0.791-1.946c-0.527-0.539-1.175-0.809-1.947-0.809
			c-0.771,0-1.418,0.27-1.946,0.809c-0.526,0.54-0.796,1.188-0.809,1.946c-0.013,0.758,0.256,1.407,0.809,1.947
			c0.552,0.539,1.201,0.809,1.946,0.809c0.746,0,1.395-0.27,1.947-0.809C43.524,9.673,43.788,9.025,43.762,8.267z"/>
	</g>
	<path d="M68.543,15.069c0-1.067,0.552-2.004,1.657-2.813c1.104-0.81,2.563-1.214,4.374-1.214c1.747,0,3.186,0.405,4.316,1.214
		c1.131,0.81,1.696,1.747,1.696,2.813c0,0.526-0.571,0.989-1.714,1.387c-1.144,0.399-2.576,0.604-4.298,0.617
		c-1.798,0-3.256-0.206-4.374-0.617C69.083,16.045,68.531,15.583,68.543,15.069z M74.574,0c1.375,0,2.55,0.495,3.528,1.484
		c0.976,0.989,1.471,2.165,1.483,3.526c0.013,1.362-0.481,2.543-1.483,3.545c-1.003,1.002-2.178,1.491-3.528,1.465
		c-1.348-0.026-2.53-0.513-3.545-1.465c-1.015-0.95-1.503-2.133-1.464-3.545c0.038-1.413,0.526-2.588,1.464-3.526
		C71.966,0.546,73.149,0.051,74.574,0z"/>
	<g>
		<path d="M114.232,12.333l4.895,4.913l-2.023,2.023l-4.895-4.894c-1.362,0.924-2.852,1.387-4.47,1.387
			c-2.171,0-4.028-0.771-5.57-2.312c-1.541-1.541-2.312-3.397-2.312-5.568c0-2.171,0.771-4.028,2.312-5.569
			C103.71,0.771,105.567,0,107.738,0c2.17,0,4.027,0.771,5.569,2.312c1.541,1.541,2.312,3.398,2.312,5.569
			C115.62,9.513,115.157,10.997,114.232,12.333z M112.979,7.882c0-1.452-0.508-2.692-1.522-3.72
			c-1.015-1.027-2.255-1.542-3.719-1.542c-1.465,0-2.705,0.514-3.72,1.542c-1.014,1.028-1.528,2.268-1.541,3.72
			c-0.012,1.451,0.501,2.684,1.541,3.699c1.042,1.016,2.281,1.53,3.72,1.542c1.438,0.014,2.678-0.501,3.719-1.542
			C112.498,10.541,113.005,9.307,112.979,7.882z"/>
	</g>
</g>
<g>
	<path d="M0.964,1.928c-0.257,0-0.483-0.096-0.674-0.29C0.097,1.446,0,1.221,0,0.964C0,0.708,0.089,0.483,0.27,0.29
		C0.45,0.097,0.681,0,0.964,0h11.562c0.283,0,0.514,0.097,0.693,0.29c0.18,0.193,0.271,0.418,0.271,0.674
		c0,0.257-0.097,0.482-0.289,0.674c-0.193,0.193-0.418,0.29-0.675,0.29H0.964z M12.525,3.855c0.283,0,0.514,0.096,0.693,0.289
		c0.18,0.193,0.271,0.418,0.271,0.674c0,0.257-0.097,0.482-0.289,0.675c-0.193,0.192-0.418,0.288-0.675,0.288H0.964
		c-0.257,0-0.483-0.096-0.674-0.288C0.097,5.3,0,5.075,0,4.818c0-0.256,0.089-0.481,0.27-0.674c0.18-0.193,0.411-0.289,0.694-0.289
		H12.525z M12.525,7.708c0.283,0,0.514,0.097,0.693,0.289c0.18,0.193,0.271,0.418,0.271,0.675c0,0.257-0.097,0.481-0.289,0.675
		c-0.193,0.192-0.418,0.289-0.675,0.289H0.964c-0.257,0-0.483-0.096-0.674-0.289C0.097,9.154,0,8.93,0,8.672
		C0,8.416,0.089,8.19,0.27,7.998c0.18-0.192,0.411-0.289,0.694-0.289H12.525z"/>
</g>
</svg>
