<svg xmlns="http://www.w3.org/2000/svg" xmlns:xlink="http://www.w3.org/1999/xlink"
	 width="1920px" height="1080px" >
		<path d="M401.257,88.038v24.924c0,0.939-0.271,1.809-0.804,2.613c-0.537,0.804-1.275,1.275-2.211,1.407l-20.904,3.216
			c-1.341,4.02-2.748,7.437-4.221,10.251c2.544,3.618,6.498,8.778,11.859,15.477c0.804,0.804,1.206,1.677,1.206,2.612
			c0,0.939-0.336,1.81-1.005,2.613c-2.01,2.814-5.697,6.903-11.055,12.261c-5.361,5.361-8.913,7.972-10.653,7.839
			c-0.939,0-1.878-0.336-2.814-1.005l-15.477-12.06c-3.351,1.743-6.768,3.15-10.251,4.221c-1.206,10.182-2.28,17.151-3.216,20.904
			c-0.537,2.142-1.878,3.216-4.02,3.216h-24.924c-1.074,0-2.01-0.336-2.814-1.005c-0.804-0.672-1.206-1.477-1.206-2.412
			l-3.216-20.703c-3.618-1.206-6.969-2.612-10.05-4.221l-15.879,12.06c-0.804,0.669-1.743,1.005-2.814,1.005
			c-1.074,0-2.01-0.401-2.814-1.205c-9.381-8.574-15.546-14.874-18.492-18.895c-0.537-0.669-0.804-1.473-0.804-2.412
			c0-0.936,0.333-1.809,1.005-2.612c1.071-1.608,2.946-4.086,5.628-7.438c2.679-3.348,4.689-6.03,6.03-8.04
			c-2.01-3.75-3.552-7.437-4.623-11.055l-20.502-3.015c-0.939-0.132-1.677-0.603-2.211-1.407c-0.537-0.804-0.873-1.674-1.005-2.613
			V87.636c0-0.936,0.333-1.809,1.005-2.613c0.669-0.804,1.338-1.272,2.01-1.407l20.904-3.216c1.071-3.348,2.544-6.765,4.422-10.251
			c-3.084-4.287-7.104-9.447-12.06-15.477c-0.804-0.936-1.206-1.809-1.206-2.613c0-0.804,0.333-1.674,1.005-2.613
			c2.01-2.679,5.694-6.699,11.055-12.06c5.358-5.358,8.91-8.04,10.653-8.04c0.936,0,1.941,0.336,3.015,1.005l15.477,12.06
			c3.216-1.74,6.564-3.147,10.05-4.221c1.206-10.182,2.343-17.151,3.417-20.904c0.402-2.142,1.74-3.216,4.02-3.216h24.924
			c0.936,0,1.809,0.336,2.613,1.005c0.804,0.672,1.272,1.476,1.407,2.412l3.015,20.703c3.75,1.206,7.101,2.547,10.05,4.02
			l16.08-11.859c0.669-0.669,1.508-1.005,2.513-1.005s1.976,0.336,2.915,1.005c9.648,8.979,15.81,15.345,18.492,19.095
			c0.534,0.672,0.804,1.476,0.804,2.412c0,0.939-0.27,1.809-0.804,2.613c-1.206,1.608-3.15,4.089-5.829,7.437
			c-2.682,3.351-4.692,6.03-6.03,8.04c1.875,3.753,3.417,7.371,4.623,10.854l20.502,3.216c0.936,0.135,1.74,0.603,2.412,1.407
			C401.122,86.229,401.389,87.102,401.257,88.038z M343.771,100.299c0-7.905-2.748-14.673-8.241-20.301
			c-5.496-5.628-12.261-8.442-20.301-8.442c-8.04,0-14.808,2.814-20.301,8.442c-5.496,5.628-8.31,12.396-8.442,20.301
			c-0.135,7.908,2.679,14.673,8.442,20.301c5.76,5.628,12.528,8.442,20.301,8.442c7.77,0,14.538-2.814,20.301-8.442
			C341.29,114.972,344.038,108.207,343.771,100.299z"/>
		<path d="M532.255,168.438c0-11.121,5.76-20.904,17.286-29.346c11.522-8.442,26.732-12.663,45.627-12.663
			c18.222,0,33.23,4.221,45.023,12.663c11.79,8.442,17.688,18.225,17.688,29.346c0,5.493-5.964,10.316-17.89,14.472
			c-11.928,4.152-26.867,6.297-44.822,6.433c-18.763,0-33.969-2.146-45.627-6.433C537.883,178.619,532.123,173.795,532.255,168.438z
			 M595.168,11.256c14.337,0,26.598,5.16,36.782,15.477c10.183,10.32,15.343,22.581,15.478,36.783
			c0.132,14.205-5.025,26.532-15.478,36.984c-10.451,10.452-22.713,15.546-36.782,15.276c-14.07-0.267-26.4-5.358-36.984-15.276
			c-10.587-9.915-15.678-22.242-15.275-36.984c0.401-14.739,5.492-27,15.275-36.783C567.964,16.953,580.294,11.793,595.168,11.256z"
			/>
		<path d="M918.824,128.64l51.055,51.255l-21.105,21.104l-51.054-51.054c-14.205,9.648-29.748,14.472-46.632,14.472
			c-22.647,0-42.009-8.039-58.089-24.119s-24.12-35.442-24.12-58.089c0-22.644,8.04-42.009,24.12-58.089S828.44,0,851.088,0
			c22.644,0,42.009,8.04,58.089,24.12s24.12,35.445,24.12,58.089C933.297,99.228,928.473,114.705,918.824,128.64z M905.76,82.208
			c0-15.141-5.295-28.071-15.879-38.793c-10.587-10.719-23.518-16.08-38.793-16.08c-15.276,0-28.209,5.361-38.793,16.08
			c-10.587,10.722-15.948,23.652-16.08,38.793c-0.135,15.144,5.226,28.008,16.08,38.592c10.854,10.587,23.784,15.948,38.793,16.08
			c15.006,0.135,27.938-5.226,38.793-16.08C900.734,109.947,906.026,97.083,905.76,82.208z"/>
			<path d="M138,64.648c0,3.3-2.7,6-6,6H6c-3.3,0-6-2.7-6-6v-9c0-3.3,2.7-6,6-6h126c3.3,0,6,2.7,6,6V64.648z"/>
			<path d="M138,104.648c0,3.3-2.7,6-6,6H6c-3.3,0-6-2.7-6-6v-9c0-3.3,2.7-6,6-6h126c3.3,0,6,2.7,6,6V104.648z"/>
			<path d="M138,144.648c0,3.3-2.7,6-6,6H6c-3.3,0-6-2.7-6-6v-9c0-3.3,2.7-6,6-6h126c3.3,0,6,2.7,6,6V144.648z"/>
</svg>
