 <svg xmlns="http://www.w3.org/2000/svg" viewBox="0 0 689.5 74.72"><path shape-rendering="geometricPrecision" fill="#00023D" d="M0.209,54.451c1.462-0.219,3.216-0.511,4.605-0.807 c0.149-2.856,0.149-7.9,0.149-11.045v-36.8L0.062,4.992c-0.148,0,0-2.71,0.148-2.71h23.191c16.902,0,22.317,4.1,22.317,13.097 c0,6.731-5.198,10.827-13.607,12.726v0.367c8.409,0.879,16.387,4.099,16.387,13.241c0,7.242-3.363,10.681-10.53,13.538 c-2.858,1.097-8.632,1.9-13.464,1.9H0.062C-0.087,57.159,0.062,54.451,0.209,54.451z M21.571,26.574 c2.197,0,4.318-0.438,5.927-1.464c2.193-1.391,3.949-3.146,3.949-8.559c0-7.977-2.561-10.827-9.215-10.827h-1.904v20.85H21.571z M23.475,53.716c6.439,0,9.729-3.511,9.729-11.708c0-8.265-3.802-11.191-12.876-11.487v23.193h3.147V53.716z"/> <path shape-rendering="geometricPrecision" fill="#00023D" d="M51.115,38.575c0-14.193,9.586-22.02,20.267-22.02 c13.026,0,18.729,7.247,17.559,18.804H65.748c0.368,10.242,5.851,13.314,12.516,13.314c4.682,0,8.414-2.192,10.535-3.801 c0.366-0.292,0.291,2.704,0,3.292c-1.03,2.191-5.049,9.948-17.558,9.948C57.335,58.107,51.115,49.766,51.115,38.575z M65.75,31.696l9.145-0.953c0-8.269-0.952-10.755-3.659-10.755C68.092,19.988,66.116,22.916,65.75,31.696z"/> <path shape-rendering="geometricPrecision" fill="#00023D" d="M91.227,54.596l3.51-0.584c0.074-2.338,0.149-6.586,0.149-9.657 V31.914c0-3.145-0.149-5.705-0.221-8.923c-1.316-0.445-1.971-0.659-3.656-1.026c-0.071,0-0.146-2.194,0.074-2.267 c8.121-1.539,11.121-2.047,17.63-3.366c0.217-0.075,0.655,0.363,0.655,0.514l-0.217,9.732h0.289 c1.904-5.486,5.933-10.242,10.317-10.242c1.687,0,2.564,0.292,3.438,0.728c0.291,0.146-0.07,12-0.365,12h-0.952 c-0.656-0.439-2.34-1.246-4.386-1.246c-3.22,0-5.71,0.949-7.908,2.338v23.777l4.394,0.655c0.221,0,0,2.563-0.07,2.563H91.152 C90.863,57.159,91.01,54.596,91.227,54.596z"/> <path shape-rendering="geometricPrecision" fill="#00023D" d="M123.676,54.596l3.512-0.584c0.073-2.338,0.144-6.586,0.144-9.657 V15.893c0-3.146-0.144-5.709-0.213-8.929c-1.32-0.437-1.975-0.657-3.659-1.021c-0.073,0-0.149-2.197,0.071-2.265 c6.729-1.246,15.067-2.711,18.073-3.365c0.217-0.073,0.657,0.221,0.657,0.511c0,2.854-0.221,6.439-0.221,11.56v41.703l3.88,0.512 c0.218,0,0,2.563-0.074,2.563h-22.236C123.31,57.159,123.459,54.596,123.676,54.596z"/> <path shape-rendering="geometricPrecision" fill="#00023D" d="M148.02,54.596l3.516-0.584c0.069-2.338,0.144-6.586,0.144-9.657 V31.914c0-3.145-0.144-5.705-0.221-8.923c-1.316-0.445-1.973-0.659-3.657-1.026c-0.07,0-0.146-2.194,0.075-2.267 c6.728-1.247,15.07-2.71,18.064-3.366c0.224-0.075,0.661,0.218,0.661,0.514c0,2.855-0.223,6.438-0.223,11.56v25.677l3.584,0.512 c0.224,0,0,2.562-0.07,2.562h-21.951C147.655,57.159,147.801,54.596,148.02,54.596z M151.096,8.063 c0-4.387,3.512-7.392,7.899-7.392c4.389,0,7.899,3.003,7.899,7.392c0,4.314-3.507,7.388-7.899,7.388 C154.607,15.452,151.096,12.378,151.096,8.063z"/> <path shape-rendering="geometricPrecision" fill="#00023D" d="M172.035,54.596l3.516-0.584c0.077-2.338,0.144-6.586,0.144-9.657 V31.914c0-3.145-0.144-5.705-0.223-8.923c-1.317-0.445-1.973-0.659-3.657-1.026c-0.074,0-0.146-2.194,0.072-2.267 c8.128-1.539,11.122-2.047,17.636-3.366c0.217-0.075,0.657,0.363,0.657,0.514l-0.145,6.511h0.291 c2.701-3.731,7.461-6.803,13.165-6.803c7.096,0,11.271,2.34,11.271,12.219v25.167c1.459,0.219,2.196,0.367,3.584,0.657 c0.289,0.075,0,2.563-0.147,2.563h-21.877c-0.222,0-0.076-2.488,0.148-2.563l3.438-0.584c0.143-3.367,0.143-6.586,0.143-9.657 V29.501c0-3.803-1.388-5.194-4.242-5.194c-2.709,0-4.097,0.955-5.414,1.901v27.875l3.584,0.512c0.225,0,0,2.563-0.073,2.563 h-21.948C171.674,57.159,171.82,54.596,172.035,54.596z"/> <path shape-rendering="geometricPrecision" fill="#00023D" d="M233.544,45.744c-0.221,0.366-0.294,0.732-0.294,1.247 c0,1.681,1.101,2.412,4.537,2.562l12.143,0.51c5.858,0.292,10.614,2.048,10.614,9.805c0,7.825-7.609,14.853-23.412,14.853 c-13.462,0-20.415-3.883-20.415-9.369c0-2.634,1.101-4.028,1.977-5.121c0.368-0.438,8.707,0.292,8.341,0.879 c-0.654,1.099-1.463,2.047-1.463,4.313c0,3.221,3.88,5.927,11.489,5.927c8.924,0,14.852-2.634,14.852-6.147 c0-2.197-0.512-2.999-4.975-3.218c-2.929-0.146-7.393-0.219-12.292-0.442c-5.931-0.292-9.657-2.63-9.657-8.268 c0-4.385,2.56-6.801,5.414-7.902v-0.51c-5.708-1.974-10.465-6.439-10.465-13.685c0-10.168,9.585-14.634,17.85-14.634 c4.176,0,8.636,1.319,12.073,3.949h0.144l10.826-3.585c0.293-0.071,0.293,9.072,0,9l-7.314-1.9 c1.24,2.123,1.974,4.607,1.974,7.463c0,10.17-9.58,14.634-17.78,14.634C236.32,46.11,234.933,45.961,233.544,45.744z M241.955,31.478c0-8.125-1.244-11.341-4.239-11.341c-3.001,0-4.172,3.364-4.172,11.049c0,8.122,1.167,11.267,4.172,11.267 C240.711,42.453,242.031,38.936,241.955,31.478z"/> <path shape-rendering="geometricPrecision" fill="#00023D" d="M263.261,55.549c-0.51-0.292-0.29-10.465,0-10.465h1.318 c1.022,1.902,4.319,9.659,11.046,9.659c3.588,0,5.418-1.167,5.418-3.95c0-2.926-1.903-4.313-9.069-7.387 c-4.463-1.902-9.369-5.271-9.369-12.731c0-9.439,8.561-14.123,17.417-14.123c4.459,0,8.335,0.656,10.46,1.756 c0.518,0.292,0.29,9.731,0,9.731h-1.241c-2.051-4.169-5.05-8.049-9.803-8.049c-2.779,0-5.852,1.537-5.852,4.388 c0,3.292,2.851,4.173,7.905,6.439c7.459,3.365,11.408,6.729,11.408,13.169c0,8.414-6.217,14.125-17.048,14.125 C270.79,58.107,266.547,57.159,263.261,55.549z"/> <path shape-rendering="geometricPrecision" fill="#00023D" d="M294.65,54.596l3.512-0.584c0.075-2.338,0.143-6.586,0.143-9.657 V15.893c0-3.146-0.143-5.709-0.216-8.929c-1.322-0.437-1.98-0.657-3.662-1.021c-0.073,0-0.147-2.197,0.071-2.265 c6.729-1.246,15.076-2.711,18.076-3.365c0.218-0.073,0.652,0.221,0.652,0.511c0,2.854-0.217,6.439-0.217,11.56v41.703 c1.462,0.22,2.629,0.292,4.026,0.512c0.219,0,0,2.563-0.072,2.563h-22.392C294.285,57.159,294.433,54.596,294.65,54.596z M323.989,56.642c-1.758-2.051-2.856-3.735-4.974-7.537c-2.337-4.241-3.367-6.221-4.83-10.388v-1.391 c7.683-10.902,9.441-13.828,12.657-19.9c2.197-0.219,8.927-0.146,10.976,0v1.099c-6.947,6.732-9.141,8.195-12.877,12.072v0.222 c5.271,10.316,9.001,15.733,12.291,20.705c1.61,2.49,2.121,2.782,3.661,3.147c0.07,0-0.075,2.488-0.219,2.488 C336.21,57.159,328.528,57.011,323.989,56.642z"/> <path shape-rendering="geometricPrecision" fill="#00023D" d="M339.82,38.575c0-14.193,9.581-22.02,20.261-22.02 c13.024,0,18.729,7.247,17.563,18.804H354.45c0.369,10.242,5.855,13.314,12.512,13.314c4.686,0,8.418-2.192,10.532-3.801 c0.366-0.292,0.294,2.704,0,3.292c-1.017,2.191-5.048,9.948-17.558,9.948C346.04,58.107,339.82,49.766,339.82,38.575z M354.45,31.696l9.146-0.953c0-8.269-0.952-10.755-3.661-10.755C356.793,19.988,354.819,22.916,354.45,31.696z"/> <path shape-rendering="geometricPrecision" fill="#A10E4B" d="M381.003,54.72c1.491-0.223,3.276-0.521,4.69-0.819 c0.148-2.905,0.148-8.042,0.148-11.242V5.209l-4.987-0.819c-0.148,0,0-2.755,0.148-2.755h23.603 c17.198,0,22.706,4.168,22.706,13.326c0,6.85-5.286,11.019-13.848,12.954v0.373c8.562,0.894,16.677,4.169,16.677,13.476 c0,7.371-3.426,10.87-10.72,13.774c-2.905,1.116-8.786,1.936-13.7,1.936h-24.866C380.704,57.477,380.854,54.72,381.003,54.72z M402.742,26.355c2.234,0,4.394-0.447,6.031-1.489c2.232-1.415,4.02-3.203,4.02-8.711c0-8.115-2.605-11.018-9.38-11.018h-1.938 v21.219h1.267V26.355z M404.679,53.975c6.552,0,9.901-3.574,9.901-11.913c0-8.413-3.87-11.392-13.104-11.688v23.601H404.679 L404.679,53.975z"/> <path shape-rendering="geometricPrecision" fill="#A10E4B" d="M434.789,45.937V30.003c0-3.054-0.074-7.372-0.146-9.753 l-3.723-0.596c-0.225,0-0.15-2.604,0.148-2.604h18.687v27.994c0,2.903,0.448,5.806,4.617,5.806c2.382,0,3.646-0.894,4.54-1.86 V29.706c0-2.755-0.074-7.073-0.149-9.456l-4.168-0.596c-0.224,0-0.224-2.604,0.074-2.604h19.432v25.238 c0,3.202,0.074,6.701,0.148,9.978l4.245,1.044c0.224,0.073,0.148,2.531-0.074,2.604c-5.361,0.745-12.509,1.49-17.495,2.457 c-0.299,0.076-1.49-0.297-1.49-0.521l-0.149-5.807h-0.298c-2.011,2.904-6.849,6.403-11.912,6.403 C438.737,58.443,434.789,54.573,434.789,45.937z"/> <path shape-rendering="geometricPrecision" fill="#A10E4B" d="M480.509,55.837c-0.521-0.298-0.298-10.647,0-10.647h1.34 c1.044,1.938,4.393,9.828,11.242,9.828c3.647,0,5.511-1.191,5.511-4.021c0-2.977-1.935-4.391-9.232-7.52 c-4.541-1.936-9.529-5.359-9.529-12.954c0-9.604,8.71-14.369,17.72-14.369c4.54,0,8.487,0.671,10.645,1.787 c0.521,0.298,0.3,9.902,0,9.902h-1.265c-2.084-4.245-5.137-8.19-9.977-8.19c-2.829,0-5.955,1.563-5.955,4.468 c0,3.353,2.903,4.245,8.04,6.553c7.595,3.426,11.614,6.849,11.614,13.4c0,8.563-6.328,14.37-17.347,14.37 C488.177,58.443,483.856,57.477,480.509,55.837z"/> <path shape-rendering="geometricPrecision" fill="#A10E4B" d="M512.111,54.871l3.574-0.596c0.074-2.383,0.147-6.702,0.147-9.828 V31.79c0-3.201-0.147-5.806-0.224-9.083c-1.34-0.447-2.011-0.671-3.722-1.043c-0.075,0-0.149-2.232,0.074-2.307 c6.851-1.266,15.338-2.755,18.39-3.425c0.225-0.076,0.671,0.223,0.671,0.52c0,2.903-0.223,6.552-0.223,11.763v26.134l3.647,0.521 c0.225,0,0,2.604-0.073,2.604h-22.337C511.738,57.477,511.888,54.871,512.111,54.871z M515.238,7.519 c0-4.468,3.574-7.519,8.041-7.519c4.468,0,8.041,3.054,8.041,7.519c0,4.393-3.573,7.52-8.041,7.52 C518.812,15.039,515.238,11.912,515.238,7.519z"/> <path shape-rendering="geometricPrecision" fill="#A10E4B" d="M536.029,54.871l3.574-0.596c0.074-2.383,0.147-6.702,0.147-9.828 V31.79c0-3.201-0.147-5.806-0.224-9.083c-1.339-0.447-2.01-0.671-3.722-1.043c-0.075,0-0.148-2.232,0.077-2.307 c8.262-1.562,11.314-2.084,17.941-3.425c0.223-0.076,0.67,0.372,0.67,0.52l-0.148,6.626h0.299 c2.756-3.797,7.594-6.925,13.401-6.925c7.223,0,11.465,2.383,11.465,12.434v25.61c1.489,0.223,2.233,0.373,3.646,0.671 c0.299,0.075,0,2.604-0.147,2.604h-22.262c-0.224,0-0.076-2.531,0.148-2.604l3.499-0.595c0.147-3.426,0.147-6.701,0.147-9.828 V29.332c0-3.871-1.415-5.286-4.317-5.286c-2.755,0-4.17,0.969-5.51,1.937v28.367l3.648,0.522c0.223,0,0,2.604-0.075,2.604h-22.335 C535.658,57.477,535.806,54.871,536.029,54.871z"/> <path shape-rendering="geometricPrecision" fill="#A10E4B" d="M584.1,38.565c0-14.444,9.753-22.411,20.622-22.411 c13.255,0,19.06,7.372,17.87,19.135h-23.6c0.37,10.424,5.955,13.55,12.73,13.55c4.764,0,8.56-2.234,10.722-3.873 c0.37-0.299,0.297,2.754,0,3.351c-1.044,2.232-5.138,10.123-17.868,10.123C590.429,58.443,584.1,49.955,584.1,38.565z M598.992,31.567l9.307-0.968c0-8.413-0.971-10.945-3.723-10.945C601.372,19.654,599.362,22.633,598.992,31.567z"/> <path shape-rendering="geometricPrecision" fill="#A10E4B" d="M626.191,55.837c-0.52-0.298-0.297-10.647,0-10.647h1.34 c1.043,1.938,4.393,9.828,11.242,9.828c3.647,0,5.51-1.191,5.51-4.021c0-2.977-1.936-4.391-9.232-7.52 c-4.542-1.936-9.529-5.359-9.529-12.954c0-9.604,8.711-14.369,17.72-14.369c4.543,0,8.485,0.671,10.646,1.787 c0.521,0.298,0.298,9.902,0,9.902h-1.266c-2.084-4.245-5.136-8.19-9.976-8.19c-2.828,0-5.955,1.563-5.955,4.468 c0,3.353,2.902,4.245,8.04,6.553c7.594,3.426,11.613,6.849,11.613,13.4c0,8.563-6.328,14.37-17.348,14.37 C633.861,58.443,629.543,57.477,626.191,55.837z"/> <path shape-rendering="geometricPrecision" fill="#A10E4B" d="M659.351,55.837c-0.521-0.298-0.296-10.647,0-10.647h1.34 c1.043,1.938,4.395,9.828,11.243,9.828c3.646,0,5.508-1.191,5.508-4.021c0-2.977-1.935-4.391-9.23-7.52 c-4.543-1.936-9.529-5.359-9.529-12.954c0-9.604,8.71-14.369,17.718-14.369c4.543,0,8.486,0.671,10.647,1.787 c0.52,0.298,0.296,9.902,0,9.902h-1.268c-2.085-4.245-5.136-8.19-9.976-8.19c-2.829,0-5.955,1.563-5.955,4.468 c0,3.353,2.902,4.245,8.037,6.553c7.595,3.426,11.614,6.849,11.614,13.4c0,8.563-6.328,14.37-17.346,14.37 C667.02,58.443,662.701,57.477,659.351,55.837z"/></svg> 